<?xml version="1.0" standalone="no"?>
<!DOCTYPE svg PUBLIC "-//W3C//DTD SVG 1.1//EN" "http://www.w3.org/Graphics/SVG/1.1/DTD/svg11.dtd" >
<svg xmlns="http://www.w3.org/2000/svg" xmlns:xlink="http://www.w3.org/1999/xlink" version="1.1">
<metadata>
Created by FontForge 20170910 at Fri Dec 10 07:44:36 2010
 By Jimmy Wärting
Copyright (c) 1990- 2008 ParaType, Inc. All rights reserved.
</metadata>
<defs>
<font id="FuturaPTWeb-ExtraBold" horiz-adv-x="500" >
  <font-face 
    font-family="Futura PT Web Extra Bold"
    font-weight="800"
    font-stretch="normal"
    units-per-em="1000"
    panose-1="2 11 10 2 2 2 4 2 2 3"
    ascent="800"
    descent="-200"
    x-height="467"
    cap-height="667"
    bbox="-56 -268 1050 925"
    underline-thickness="50"
    underline-position="-100"
    unicode-range="U+0020-2122"
  />
<missing-glyph 
d="M442 8v496h-384v-496h384zM50 512h400v-512h-400v512z" />
    <glyph glyph-name=".notdef" 
d="M442 8v496h-384v-496h384zM50 512h400v-512h-400v512z" />
    <glyph glyph-name="space" unicode=" " horiz-adv-x="233" 
 />
    <glyph glyph-name="space" unicode="&#xa0;" horiz-adv-x="233" 
 />
    <glyph glyph-name="exclam" unicode="!" horiz-adv-x="409" 
d="M319 255h-233v412h233v-412zM336 100q0 -19 -8 -39t-23 -35q-20 -20 -47.5 -29t-53.5 -9t-53 9t-47 29q-15 15 -23 35t-8 39q0 18 8 38t23 35q20 20 47 29t53 9t53.5 -9t47.5 -29q15 -15 23 -35t8 -38z" />
    <glyph glyph-name="quotedbl" unicode="&#x22;" horiz-adv-x="417" 
d="M164 399h-99l-24 268h148zM352 399h-100l-24 268h148z" />
    <glyph glyph-name="numbersign" unicode="#" horiz-adv-x="600" 
d="M576 299l-17 -117h-102l-29 -182h-134l30 182h-85l-29 -182h-132l30 182h-102l18 117h101l14 83h-101l18 116h101l27 169h132l-28 -169h85l27 169h133l-27 -169h100l-18 -116h-100l-13 -83h101zM355 382h-85l-13 -83h85z" />
    <glyph glyph-name="dollar" unicode="$" horiz-adv-x="707" 
d="M149 256q18 -16 39.5 -31t44.5 -26q31 -15 57.5 -21t49.5 -6q13 0 30.5 2.5t28.5 9.5q17 11 17 29q0 14 -10 24q-8 8 -19.5 11t-19.5 5l-61 10q-17 3 -37.5 7.5t-41.5 12.5t-41 19.5t-35 27.5q-21 22 -34 55t-13 71q0 41 15 78t44 66q23 23 56.5 40t71.5 24v109h132v-103
q30 -2 72 -12t98 -40l-67 -167q-17 14 -37 25t-38 18q-38 13 -78 13q-11 0 -24.5 -2t-24.5 -11q-5 -4 -9 -10.5t-4 -17.5q0 -8 3 -13.5t6 -8.5q4 -3 9.5 -5.5t16 -5t26.5 -4.5t41 -5q42 -5 86 -18.5t79 -48.5q28 -29 38.5 -61.5t10.5 -66.5q0 -42 -13 -80t-44 -70
q-23 -25 -60.5 -45t-86.5 -26v-123h-132v121q-27 2 -56 8t-60 18q-52 20 -94 49z" />
    <glyph glyph-name="percent" unicode="%" horiz-adv-x="1028" 
d="M446 493q0 -45 -16 -76t-35 -50q-20 -20 -58.5 -39t-102.5 -19q-63 0 -101.5 19t-58.5 39q-19 19 -35 50t-16 76t16 76t35 50q20 20 58.5 39t101.5 19q64 0 102.5 -19t58.5 -39q19 -19 35 -50t16 -76zM196 494q0 -10 3 -19.5t10 -16.5t14 -8.5t13 -1.5t13 1.5t14 8.5
q14 14 14 39q0 14 -3.5 22.5t-8.5 13.5q-9 11 -28 11q-10 0 -16.5 -3.5t-10.5 -7.5q-14 -14 -14 -39zM651 667h110l-388 -667h-109zM1004 173q0 -45 -16 -76t-35 -50q-20 -20 -58.5 -39t-102.5 -19q-63 0 -101.5 19t-58.5 39q-19 19 -35 50t-16 76t16 76t35 50
q20 20 58.5 39t101.5 19q64 0 102.5 -19t58.5 -39q19 -19 35 -50t16 -76zM754 174q0 -10 3 -19.5t10 -16.5t14 -8.5t13 -1.5t13 1.5t14 8.5q14 14 14 39q0 14 -3.5 22.5t-8.5 13.5q-9 11 -28 11q-10 0 -16.5 -3.5t-10.5 -7.5q-14 -14 -14 -39z" />
    <glyph glyph-name="ampersand" unicode="&#x26;" horiz-adv-x="843" 
d="M561 0l-43 52q-20 -16 -43.5 -29t-46.5 -21q-30 -11 -61.5 -14t-58.5 -3q-24 0 -50 2t-52.5 9t-52 20t-49.5 36q-20 19 -32.5 39t-19.5 39t-9.5 36t-2.5 31q0 38 12.5 65t29.5 44q21 23 54 39.5t71 21.5q-10 7 -21.5 19t-21 27.5t-16 36t-6.5 45.5q0 36 12.5 65t32.5 50
q29 32 80 52t119 20q42 0 75 -7.5t57.5 -18.5t41 -24t26.5 -24q45 -48 45 -111q0 -76 -54 -126q-19 -17 -38 -27.5t-37 -16.5l59 -61q13 9 27 20.5t27.5 25t26 27.5t22.5 28l126 -144q-14 -14 -40 -34.5t-64 -43.5l154 -145h-279zM306 258q-17 -10 -27 -22q-5 -7 -9 -16
t-4 -20q0 -21 16 -34q17 -14 46 -14q21 0 36 6t27 16zM360 493q0 -17 9 -30q8 -15 24 -25q7 4 15.5 9.5t14.5 11.5q16 16 16 38q0 16 -5.5 23.5t-7.5 9.5q-5 4 -12 6t-12 2q-7 0 -15 -3t-14 -9q-13 -13 -13 -33z" />
    <glyph glyph-name="quotesingle" unicode="'" horiz-adv-x="231" 
d="M166 399h-101l-24 268h150z" />
    <glyph glyph-name="parenleft" unicode="(" horiz-adv-x="404" 
d="M353 668q-26 -56 -41 -103t-23 -80q-12 -48 -18 -95t-6 -102q0 -56 6.5 -110.5t17.5 -105.5q12 -56 28 -106t36 -97l-170 -99q-7 14 -18.5 38t-24 55.5t-26 69.5t-25.5 80q-17 63 -27 126t-10 138q0 60 6.5 118t23.5 122q17 63 43 127t58 122l170 -98v0z" />
    <glyph glyph-name="parenright" unicode=")" horiz-adv-x="404" 
d="M221 766q32 -58 58 -122t43 -127q17 -64 23.5 -122t6.5 -118q0 -75 -10 -138t-27 -126q-12 -42 -25.5 -80t-26 -69.5t-24 -55.5t-18.5 -38l-170 99q20 47 36 97t28 106q11 51 17.5 105.5t6.5 110.5q0 55 -6 102t-18 95q-8 33 -23 80t-41 103z" />
    <glyph glyph-name="asterisk" unicode="*" horiz-adv-x="707" 
d="M303 619l-10 110h120l-10 -110l102 44l37 -114l-108 -25l73 -83l-97 -70l-57 94l-56 -94l-97 70l73 83l-108 25l37 114z" />
    <glyph glyph-name="plus" unicode="+" 
d="M33 400h152v153h130v-153h152v-120h-152v-153h-130v153h-152v120z" />
    <glyph glyph-name="comma" unicode="," horiz-adv-x="356" 
d="M168 -160h-178l107 330h229z" />
    <glyph glyph-name="hyphen" unicode="-" horiz-adv-x="415" 
d="M50 175v180h315v-180h-315z" />
    <glyph glyph-name="period" unicode="." horiz-adv-x="355" 
d="M309 99q0 -19 -8 -39t-23 -35q-20 -20 -47.5 -29t-53.5 -9t-53 9t-47 29q-15 15 -23 35t-8 39q0 18 8 38t23 35q20 20 47 29t53 9t53.5 -9t47.5 -29q15 -15 23 -35t8 -38z" />
    <glyph glyph-name="slash" unicode="/" horiz-adv-x="726" 
d="M493 729h173l-520 -922h-172z" />
    <glyph glyph-name="zero" unicode="0" horiz-adv-x="707" 
d="M670 334q0 -26 -4 -59.5t-15 -69.5t-30 -71t-49 -65q-38 -37 -92 -60.5t-127 -23.5t-127 23.5t-92 60.5q-30 30 -49 65t-30 71t-15 69.5t-4 59.5t4 59.5t15 69t30 70.5t49 65q38 37 92 60.5t127 23.5t127 -23.5t92 -60.5q30 -30 49 -65t30 -70.5t15 -69t4 -59.5zM353 484
q-25 0 -43 -17q-23 -21 -33 -59t-10 -71q0 -38 10 -73.5t33 -55.5q18 -17 43 -17q14 0 23.5 4.5t18.5 12.5q16 14 24.5 33t12.5 38t5 35t1 23q0 38 -10 74t-33 56q-9 8 -18.5 12.5t-23.5 4.5z" />
    <glyph glyph-name="one" unicode="1" horiz-adv-x="707" 
d="M270 0v452l-103 -8v223h343v-667h-240z" />
    <glyph glyph-name="two" unicode="2" horiz-adv-x="707" 
d="M665 0h-661l274 243q12 10 23 20t22 20.5t23 23.5t26 30q16 19 30.5 43t14.5 52q0 22 -16 37q-15 15 -40 15q-18 0 -28 -7t-15 -13q-8 -11 -12 -30.5t-4 -33.5h-236q-2 60 17 111t48 83q40 44 103 66t134 22q75 0 132.5 -23t94.5 -61q22 -23 42 -60t20 -92q0 -48 -16 -89
t-54 -76q-19 -18 -41.5 -33t-45 -26.5t-43 -20t-35.5 -13.5v-7q33 7 69.5 12t71.5 7l102 5v-205z" />
    <glyph glyph-name="three" unicode="3" horiz-adv-x="707" 
d="M548 353q23 -7 40 -18t29 -23q21 -21 31 -47t10 -61q0 -85 -58 -141q-28 -28 -60.5 -43.5t-65 -23t-63 -9.5t-54.5 -2q-55 0 -96 7.5t-71.5 19.5t-50.5 26.5t-33 27.5q-24 24 -44 65.5t-21 98.5h244q0 -19 6.5 -34.5t16.5 -24.5q17 -17 46 -17q17 0 28.5 5.5t18.5 12.5
q18 18 18 45q0 26 -16 45q-16 17 -38.5 19.5t-39.5 -2.5v138q15 -4 29.5 -1t24.5 11q16 13 16 41q0 20 -14 33q-11 11 -32 11q-10 0 -17.5 -3.5t-12.5 -8.5q-6 -6 -10 -16.5t-3 -22.5h-238q0 15 3.5 36t13.5 45t28.5 48.5t50.5 45.5q45 29 96.5 37.5t92.5 8.5q44 0 79 -6.5
t62 -16.5t47 -23t34 -26q32 -31 43.5 -64t11.5 -59q0 -32 -9.5 -56t-22.5 -38q-23 -24 -50 -35v-5v0z" />
    <glyph glyph-name="four" unicode="4" horiz-adv-x="707" 
d="M591 0h-229l8 133l-338 -7v175l273 366h286v-359l84 6v-188l-90 7zM371 308v96q0 14 2.5 29t7.5 29l-6 4q-8 -16 -15 -26.5t-15 -20.5l-63 -81q-7 -9 -12 -15.5t-17 -16.5l2 -5q27 7 55 7h61z" />
    <glyph glyph-name="five" unicode="5" horiz-adv-x="707" 
d="M165 667h453v-186h-285q-2 -16 -6 -35.5t-15 -41.5h6q10 11 33 23t71 12q21 0 44.5 -3.5t47.5 -11t46 -19.5t40 -29q29 -28 44.5 -66.5t15.5 -80.5q0 -32 -14.5 -74.5t-55.5 -82.5q-37 -35 -98.5 -61t-149.5 -26q-41 0 -82 6t-77 14q-52 12 -109 34l27 181
q47 -24 99.5 -40t97.5 -16h10t19.5 1.5t24.5 4t25 7.5q28 12 34.5 28.5t6.5 24.5q0 14 -8 29.5t-34 26.5q-21 9 -45 12.5t-50 3.5q-35 0 -78 -5.5t-96 -23.5z" />
    <glyph glyph-name="six" unicode="6" horiz-adv-x="707" 
d="M604 667l-213 -187l1 -6q29 10 58 10q38 0 74.5 -12.5t68.5 -44.5q29 -29 46.5 -73.5t17.5 -98.5t-18 -98t-52 -79q-17 -17 -39.5 -34t-52 -30t-66.5 -21t-82 -8q-80 0 -141.5 25.5t-103.5 67.5q-29 30 -53 79t-24 121q0 63 25 117t80 111l157 161h317zM258 256
q0 -13 4 -26.5t17 -27.5q24 -26 61 -26q17 0 32 6t26 16q14 12 19.5 27.5t5.5 32.5q0 23 -8 39t-21 27q-11 10 -26 16t-29 6t-29 -6t-24 -14q-14 -11 -21 -30t-7 -40z" />
    <glyph glyph-name="seven" unicode="7" horiz-adv-x="707" 
d="M340 0h-268l256 430q5 9 10 16t14 15l-1 6q-26 -5 -42.5 -5.5t-33.5 -1.5l-203 -7v214h647z" />
    <glyph glyph-name="eight" unicode="8" horiz-adv-x="707" 
d="M534 341q26 -5 47.5 -16t35.5 -26q20 -20 30 -48.5t10 -60.5q0 -36 -13.5 -67t-35.5 -54q-13 -14 -33.5 -29t-50.5 -27t-71 -20t-95 -8q-57 0 -99.5 8t-73.5 20.5t-52.5 27.5t-34.5 29q-29 31 -39 62.5t-10 54.5q0 35 12.5 64.5t33.5 49.5q6 6 24.5 19t50.5 21v7
q-7 2 -27.5 11t-39.5 29q-18 20 -25.5 44t-7.5 53q0 47 21.5 81t56.5 60q50 35 105.5 45.5t100.5 10.5q47 0 83.5 -7t64.5 -18t48 -24.5t34 -26.5q26 -26 39.5 -56.5t13.5 -68.5q0 -26 -6.5 -48t-25.5 -43q-18 -20 -37 -29t-35 -13zM354 514q-11 0 -21 -5t-16 -11
q-8 -8 -11 -16.5t-3 -17.5q0 -25 14 -39q15 -16 37 -16q12 0 20.5 4t16.5 12q14 15 14 39q0 9 -3 17.5t-11 16.5q-6 6 -16 11t-21 5zM289 211q0 -11 3.5 -23t14.5 -23q19 -19 48 -19t48 19q11 11 14.5 23t3.5 23q0 14 -3.5 27t-14.5 24q-19 19 -48 19t-48 -19
q-11 -11 -14.5 -24t-3.5 -27z" />
    <glyph glyph-name="nine" unicode="9" horiz-adv-x="707" 
d="M88 0l175 155q13 11 33 23v4q-8 -1 -17 -1.5t-20 -0.5q-52 0 -92 17t-69 48q-26 27 -44 69t-18 103q0 105 70 177q40 42 99.5 65t142.5 23q31 0 64 -4t66 -14.5t64 -28.5t59 -46q40 -41 55 -85t15 -100q0 -69 -24 -124.5t-75 -109.5l-162 -170h-322zM276 406
q0 -17 6 -33.5t17 -27.5t26 -17.5t32 -6.5t31.5 6.5t24.5 16.5t16.5 26t6.5 36q0 35 -24 58q-9 8 -22.5 15t-33.5 7q-17 0 -30 -4.5t-26 -18.5q-11 -11 -17.5 -25.5t-6.5 -31.5z" />
    <glyph glyph-name="colon" unicode=":" horiz-adv-x="355" 
d="M309 369q0 -19 -8 -39t-23 -35q-20 -20 -47.5 -29t-53.5 -9t-53 9t-47 29q-15 15 -23 35t-8 39q0 18 8 38t23 35q20 20 47 29t53 9t53.5 -9t47.5 -29q15 -15 23 -35t8 -38zM309 99q0 -19 -8 -39t-23 -35q-20 -20 -47.5 -29t-53.5 -9t-53 9t-47 29q-15 15 -23 35t-8 39
q0 18 8 38t23 35q20 20 47 29t53 9t53.5 -9t47.5 -29q15 -15 23 -35t8 -38z" />
    <glyph glyph-name="semicolon" unicode=";" horiz-adv-x="357" 
d="M168 -160h-178l107 330h229zM350 369q0 -19 -8 -39t-23 -35q-20 -20 -47.5 -29t-53.5 -9t-53 9t-47 29q-15 15 -23 35t-8 39q0 18 8 38t23 35q20 20 47 29t53 9t53.5 -9t47.5 -29q15 -15 23 -35t8 -38z" />
    <glyph glyph-name="less" unicode="&#x3c;" 
d="M467 609v-128l-297 -147l296 -148l1 -128l-434 222v109z" />
    <glyph glyph-name="equal" unicode="=" 
d="M33 483h434v-113h-434v113zM33 310h434v-113h-434v113z" />
    <glyph glyph-name="greater" unicode="&#x3e;" 
d="M33 58v129l297 147l-296 147l-1 128l434 -221v-109z" />
    <glyph glyph-name="question" unicode="?" horiz-adv-x="614" 
d="M40 460q6 45 25 83t46 65q32 32 81.5 53t122.5 21q75 0 123 -22t75 -48q10 -10 21 -24t20 -32.5t14.5 -41.5t5.5 -51q0 -46 -14 -84t-39 -64q-21 -22 -47 -34.5t-53.5 -19t-54 -8.5t-47.5 -2q-25 0 -45 1.5t-42 6.5v151q21 -9 48 -9q12 0 27 3.5t28 15.5q8 8 14 20.5
t6 32.5q0 10 -2.5 19.5t-10.5 17.5q-11 11 -29 11q-15 0 -23 -5.5t-11 -8.5q-8 -9 -10.5 -22t-2.5 -25h-226zM440 100q0 -19 -8 -39t-23 -35q-20 -20 -47.5 -29t-53.5 -9t-53 9t-47 29q-15 15 -23 35t-8 39q0 18 8 38t23 35q20 20 47 29t53 9t53.5 -9t47.5 -29
q15 -15 23 -35t8 -38z" />
    <glyph glyph-name="at" unicode="@" horiz-adv-x="733" 
d="M468 492h89l-37 -190q-2 -12 -4 -21.5t-2 -17.5q0 -5 1 -10.5t6 -10.5q7 -7 20 -7q9 0 16 3.5t13 8.5q22 19 34 57.5t12 75.5q0 46 -16 83t-42 63q-29 30 -72 49t-97 19q-48 0 -97.5 -19t-90.5 -60q-76 -76 -76 -187q0 -34 6.5 -62t17 -50.5t23.5 -40.5t26 -31
q24 -24 48.5 -37.5t49 -21t48.5 -9.5t47 -2q45 0 89 8t90 26l20 -86q-53 -20 -100 -27t-96 -7q-31 0 -65 3.5t-68.5 14t-68.5 30.5t-66 54q-47 49 -70 111t-23 124q0 74 26.5 136.5t69.5 107.5q47 49 113 79t149 30q39 0 72 -7.5t60.5 -19.5t50 -28t40.5 -33
q33 -33 59.5 -84t26.5 -122q0 -21 -3 -45t-10.5 -48t-19.5 -46.5t-31 -41.5q-25 -25 -54 -37t-58 -12q-14 0 -30.5 4t-30.5 19q-8 9 -12 18.5t-5 12.5q-10 -14 -21.5 -25t-25.5 -19q-18 -11 -34 -15t-36 -4q-29 0 -52 9t-43 30q-21 22 -33 51t-12 66q0 45 16 83t45 67t60 40
t60 11q20 0 33.5 -4t21.5 -9q23 -13 36 -35zM293 306q0 -14 3 -26t12 -23t19.5 -16t20.5 -5q13 0 25.5 5.5t22.5 13.5q17 15 26 38t9 45q0 23 -6 36t-12 19q-7 7 -16.5 11.5t-21.5 4.5q-28 0 -51 -23q-14 -14 -22.5 -35t-8.5 -45z" />
    <glyph glyph-name="A" unicode="A" horiz-adv-x="737" 
d="M274 83l-18 -83h-256l231 667h268l238 -667h-257l-22 83h-184zM385 369q-5 20 -8 38.5t-5 36.5h-9q-1 -21 -3.5 -39t-7.5 -36l-33 -128h97l-31 128v0z" />
    <glyph glyph-name="B" unicode="B" horiz-adv-x="677" 
d="M67 667h291q21 0 47.5 -1.5t53.5 -7.5t52.5 -17t45.5 -30q6 -6 14.5 -16.5t17 -26t14 -37.5t5.5 -50q0 -19 -4.5 -44t-23.5 -48q-10 -12 -25 -23t-33 -18l-1 -6q38 -10 70 -40q25 -24 37 -52t12 -64q0 -39 -14 -73t-49 -62q-21 -17 -43.5 -27t-45 -15.5t-43.5 -7
t-39 -1.5h-339v667zM291 411h38q11 0 24.5 3.5t21.5 11.5q5 5 9 13t4 22t-5 22.5t-10 12.5q-10 8 -23.5 9.5t-20.5 1.5h-38v-96zM291 161h49q11 0 25 1.5t26 9.5q9 6 16 17t7 28q0 25 -18 40q-12 10 -27.5 12t-25.5 2h-52v-110z" />
    <glyph glyph-name="B" unicode="&#xe000;" horiz-adv-x="677" 
d="M67 667h291q21 0 47.5 -1.5t53.5 -7.5t52.5 -17t45.5 -30q6 -6 14.5 -16.5t17 -26t14 -37.5t5.5 -50q0 -19 -4.5 -44t-23.5 -48q-10 -12 -25 -23t-33 -18l-1 -6q38 -10 70 -40q25 -24 37 -52t12 -64q0 -39 -14 -73t-49 -62q-21 -17 -43.5 -27t-45 -15.5t-43.5 -7
t-39 -1.5h-339v667zM291 411h38q11 0 24.5 3.5t21.5 11.5q5 5 9 13t4 22t-5 22.5t-10 12.5q-10 8 -23.5 9.5t-20.5 1.5h-38v-96zM291 161h49q11 0 25 1.5t26 9.5q9 6 16 17t7 28q0 25 -18 40q-12 10 -27.5 12t-25.5 2h-52v-110z" />
    <glyph glyph-name="C" unicode="C" horiz-adv-x="591" 
d="M548 12q-24 -9 -48.5 -14.5t-47.5 -8t-41.5 -3.5t-30.5 -1q-66 0 -131 23.5t-115 73.5q-48 47 -72.5 111t-24.5 135q0 78 27 142t73 111q18 18 42 36t55 32.5t69.5 23.5t85.5 9q38 0 78.5 -6t80.5 -20l7 -254q-11 10 -25.5 22t-32.5 21.5t-39 16t-44 6.5q-59 0 -97 -41
q-17 -19 -26 -44t-9 -51q0 -27 9.5 -52t29.5 -44q15 -14 39 -26t60 -12q25 0 46.5 6.5t39 16.5t29.5 21t20 19z" />
    <glyph glyph-name="D" unicode="D" horiz-adv-x="745" 
d="M67 0v667h257q21 0 56 -2.5t76 -12t84 -30t79 -56.5q16 -16 32 -38.5t29 -52t21 -67t8 -83.5q0 -26 -3 -55t-12.5 -59t-26.5 -60t-44 -57q-15 -15 -37 -32t-52 -30.5t-67.5 -22.5t-82.5 -9h-317zM307 204h18q21 0 49 4t54 27q17 15 28 39.5t11 56.5t-11 58t-28 42
q-22 20 -48 26t-47 6h-26v-259z" />
    <glyph glyph-name="E" unicode="E" horiz-adv-x="560" 
d="M67 0v667h450v-183h-208v-62h189v-175h-189v-64h214v-183h-456z" />
    <glyph glyph-name="E" unicode="&#xe001;" horiz-adv-x="560" 
d="M67 0v667h450v-183h-208v-62h189v-175h-189v-64h214v-183h-456z" />
    <glyph glyph-name="F" unicode="F" horiz-adv-x="542" 
d="M67 0v667h445v-190h-203v-68h178v-176h-178v-233h-242z" />
    <glyph glyph-name="G" unicode="G" horiz-adv-x="804" 
d="M393 388h375v-15q0 -31 -2.5 -66t-11 -72t-26 -73t-47.5 -68q-50 -54 -125 -81.5t-158 -27.5q-53 0 -95.5 9.5t-76 25t-59 35.5t-44.5 40q-48 51 -67 111t-19 126q0 46 8 83.5t21 67.5t29.5 53.5t33.5 40.5q41 42 110 73.5t170 31.5q54 0 101.5 -11t94.5 -36
q43 -23 74 -52.5t54 -70.5l-226 -84q-11 17 -32.5 34t-59.5 17q-26 0 -47.5 -8.5t-37.5 -22.5q-20 -19 -34.5 -50.5t-14.5 -75.5q0 -34 11 -66t33 -53q14 -14 33.5 -22t45.5 -8q13 0 28 2.5t29 9.5t25 17.5t17 27.5h-110v158z" />
    <glyph glyph-name="H" unicode="H" horiz-adv-x="748" 
d="M67 0v667h233v-226h148v226h233v-667h-233v232h-148v-232h-233z" />
    <glyph glyph-name="I" unicode="I" horiz-adv-x="376" 
d="M67 0v667h242v-667h-242z" />
    <glyph glyph-name="J" unicode="J" horiz-adv-x="482" 
d="M178 667h238v-465q0 -27 -5.5 -50t-14.5 -41.5t-19.5 -33t-20.5 -24.5q-33 -35 -76.5 -51.5t-90.5 -16.5q-35 0 -80 10.5t-92 43.5l-27 19l88 206l5 -17q3 -11 9 -23t13 -18q12 -12 31 -12q17 0 28 12q10 11 12 26t2 23v412z" />
    <glyph glyph-name="K" unicode="K" horiz-adv-x="740" 
d="M67 0v667h232v-207q0 -23 -1 -42t-4 -42h5q11 29 18.5 43.5t16.5 31.5l115 216h262l-208 -327l230 -340h-280l-122 214q-9 15 -17 32t-15 32h-5q3 -17 4 -31.5t1 -31.5v-215h-232z" />
    <glyph glyph-name="L" unicode="L" horiz-adv-x="527" 
d="M67 0v667h242v-452h204v-215h-446z" />
    <glyph glyph-name="M" unicode="M" horiz-adv-x="983" 
d="M40 0l108 667h249l78 -273q8 -26 11 -48t4 -29h6q1 22 4 39t9 38l78 273h247l109 -667h-233l-30 299q-2 17 -3 31t-1 35h-4q-2 -13 -6 -29.5t-7 -26.5l-99 -309h-142l-89 292q-5 18 -8.5 35t-4.5 38h-7v-26t-1 -26l-33 -313h-235z" />
    <glyph glyph-name="N" unicode="N" horiz-adv-x="801" 
d="M67 0v667h231l155 -252q9 -15 17 -28t15.5 -26.5t15 -29t15.5 -34.5h7q-8 32 -14.5 76.5t-6.5 81.5v212h232v-667h-232l-166 263q-11 18 -23.5 42t-22.5 45h-7q3 -14 5.5 -30.5t4.5 -33.5t3.5 -32.5t1.5 -26.5v-227h-231z" />
    <glyph glyph-name="O" unicode="O" horiz-adv-x="814" 
d="M777 334q0 -81 -27 -141.5t-66 -100.5q-43 -44 -112.5 -75.5t-164.5 -31.5t-164.5 31.5t-112.5 75.5q-39 40 -66 100.5t-27 141.5q0 80 27 140.5t66 100.5q21 22 49.5 41.5t63 34t75.5 23t89 8.5t89 -8.5t75.5 -23t63 -34t49.5 -41.5q39 -40 66 -100.5t27 -140.5z
M407 467q-32 0 -53.5 -10.5t-33.5 -23.5q-18 -19 -28 -46t-10 -54q0 -29 10 -55t28 -44q15 -15 37 -24.5t50 -9.5t50 9.5t37 24.5q17 17 27.5 42t10.5 57q0 64 -38 100q-14 14 -35.5 24t-51.5 10z" />
    <glyph glyph-name="P" unicode="P" horiz-adv-x="667" 
d="M67 0v667h320q40 0 71.5 -7t55.5 -17.5t40.5 -23t27.5 -22.5q41 -41 54.5 -88t13.5 -87q0 -21 -2.5 -42.5t-10 -43t-20.5 -42.5t-33 -39q-40 -36 -83 -45t-81 -9h-117v-201h-236zM303 369h41q9 0 25 2.5t29 15.5q7 6 11.5 16t4.5 25q0 16 -5.5 26t-12.5 15q-8 7 -21.5 11
t-27.5 4h-44v-115z" />
    <glyph glyph-name="Q" unicode="Q" horiz-adv-x="811" 
d="M574 23q-44 -23 -81.5 -30.5t-81.5 -7.5q-36 0 -72 4t-70.5 14.5t-67.5 29t-63 48.5q-42 42 -71.5 105t-29.5 148q0 82 28 142t72 103q47 46 113 74.5t157 28.5q54 0 97 -10t77.5 -25.5t59.5 -34.5t43 -37q46 -48 69 -111t23 -132q0 -44 -7.5 -78t-17.5 -59t-21 -41
t-17 -24l98 -109l-190 -79zM525 297q11 37 2.5 73.5t-34.5 62.5q-19 19 -40 27t-47 8q-25 0 -47 -8.5t-41 -28.5q-18 -20 -27.5 -45.5t-9.5 -50.5q0 -27 9.5 -55t30.5 -48t51.5 -28.5t62.5 -0.5l-61 65z" />
    <glyph glyph-name="R" unicode="R" horiz-adv-x="711" 
d="M67 0v667h301q26 0 52.5 -2t52.5 -9.5t51 -21t48 -36.5q26 -26 44.5 -65t18.5 -99q0 -45 -11.5 -73.5t-25.5 -45.5q-15 -19 -39 -33t-53 -20v-6q10 -5 19 -12.5t16 -18.5l150 -225h-279l-96 195q-2 5 -4.5 9t-4.5 12l-4 -2v-214h-236zM303 370h28q11 0 25.5 2.5
t25.5 12.5q6 5 11.5 15t5.5 26q0 11 -3 21.5t-10 18.5q-6 7 -16 12.5t-25 5.5h-42v-114z" />
    <glyph glyph-name="S" unicode="S" horiz-adv-x="618" 
d="M494 454q-22 15 -58.5 32.5t-77.5 17.5q-10 0 -23 -2t-23 -10q-12 -9 -12 -24q0 -11 5.5 -20t33.5 -15l77 -17q45 -10 72 -26t42 -31q32 -31 41.5 -66.5t9.5 -65.5q0 -43 -13 -82.5t-47 -74.5q-14 -15 -35 -30t-50 -27t-66 -20t-84 -8q-38 0 -70.5 5t-60 12.5t-51.5 16.5
t-45 18l-22 9l73 188l26 -20q9 -7 23 -15.5t31.5 -16t38 -12.5t42.5 -5q25 0 36.5 4.5t15.5 7.5q8 7 10.5 14.5t2.5 15.5q0 5 -1.5 11.5t-6.5 11.5q-6 6 -16.5 9t-29.5 7l-59 11q-29 5 -58.5 16.5t-57.5 40.5q-26 26 -37 56.5t-11 66.5q0 94 65 159q38 39 95 62.5t137 23.5
q40 0 91 -10.5t112 -47.5z" />
    <glyph glyph-name="S" unicode="&#xe002;" horiz-adv-x="618" 
d="M494 454q-22 15 -58.5 32.5t-77.5 17.5q-10 0 -23 -2t-23 -10q-12 -9 -12 -24q0 -11 5.5 -20t33.5 -15l77 -17q45 -10 72 -26t42 -31q32 -31 41.5 -66.5t9.5 -65.5q0 -43 -13 -82.5t-47 -74.5q-14 -15 -35 -30t-50 -27t-66 -20t-84 -8q-38 0 -70.5 5t-60 12.5t-51.5 16.5
t-45 18l-22 9l73 188l26 -20q9 -7 23 -15.5t31.5 -16t38 -12.5t42.5 -5q25 0 36.5 4.5t15.5 7.5q8 7 10.5 14.5t2.5 15.5q0 5 -1.5 11.5t-6.5 11.5q-6 6 -16.5 9t-29.5 7l-59 11q-29 5 -58.5 16.5t-57.5 40.5q-26 26 -37 56.5t-11 66.5q0 94 65 159q38 39 95 62.5t137 23.5
q40 0 91 -10.5t112 -47.5z" />
    <glyph glyph-name="T" unicode="T" horiz-adv-x="522" 
d="M143 0v456l-136 -6v217h508v-217l-134 6v-456h-238z" />
    <glyph glyph-name="U" unicode="U" horiz-adv-x="751" 
d="M67 667h240v-387q0 -15 3.5 -34t17.5 -34q10 -11 22 -14.5t26 -3.5q19 0 30.5 4.5t18.5 11.5q14 14 16 35.5t2 34.5v387h241v-409q0 -20 -2.5 -43t-10 -48t-21.5 -50.5t-36 -48.5q-26 -26 -55.5 -42.5t-61 -25.5t-62.5 -12t-59 -3q-23 0 -54 2t-64.5 11t-67.5 26.5
t-62 48.5q-39 42 -50 86.5t-11 81.5v426z" />
    <glyph glyph-name="V" unicode="V" horiz-adv-x="725" 
d="M0 667h253l93 -314q6 -20 9.5 -45.5t5.5 -43.5h6q1 20 4.5 44t9.5 45l91 314h253l-258 -667h-208z" />
    <glyph glyph-name="W" unicode="W" horiz-adv-x="1049" 
d="M0 667h251l73 -316q4 -17 7.5 -35t3.5 -47h6q2 32 6 59t11 53l73 286h186l77 -304q5 -18 8.5 -46t5.5 -48h5q1 32 5 56.5t10 50.5l69 291h252l-235 -667h-211l-63 272q-5 20 -8 43t-5 48h-8q0 -8 -1 -20.5t-2.5 -25.5t-3 -25t-3.5 -20l-69 -272h-206z" />
    <glyph glyph-name="X" unicode="X" horiz-adv-x="742" 
d="M23 667h274l55 -105q5 -9 9 -22.5t6 -22.5h5q6 25 16 45l51 105h274l-209 -312l238 -355h-276l-81 151q-3 5 -5.5 16.5t-3.5 15.5h-7q-2 -8 -6 -19t-8 -18l-79 -146h-276l233 355z" />
    <glyph glyph-name="Y" unicode="Y" horiz-adv-x="685" 
d="M-7 667h274l57 -122q3 -7 8 -20.5t10 -32.5h7q4 21 8.5 31.5t9.5 21.5l52 122h273l-228 -380v-287h-239v287z" />
    <glyph glyph-name="Z" unicode="Z" horiz-adv-x="705" 
d="M71 667h621l-253 -412q-8 -13 -17.5 -25.5t-19.5 -23.5l2 -4l46 4h212v-206h-649l247 399q12 19 22.5 35t30.5 37l-2 4q-8 -3 -22.5 -6.5t-25.5 -3.5h-192v202z" />
    <glyph glyph-name="bracketleft" unicode="[" horiz-adv-x="430" 
d="M273 -103h117v-90h-317v922h317v-90h-117v-742z" />
    <glyph glyph-name="backslash" unicode="\" horiz-adv-x="726" 
d="M580 -193l-520 922h173l519 -922h-172z" />
    <glyph glyph-name="bracketright" unicode="]" horiz-adv-x="430" 
d="M157 639h-117v90h317v-922h-317v90h117v742z" />
    <glyph glyph-name="asciicircum" unicode="^" 
d="M149 330h-144l160 337h170l161 -337h-144l-102 219z" />
    <glyph glyph-name="underscore" unicode="_" 
d="M0 -46h500v-150h-500v150z" />
    <glyph glyph-name="grave" unicode="`" 
d="M251 742l115 -146l-86 -55l-146 128z" />
    <glyph glyph-name="a" unicode="a" horiz-adv-x="639" 
d="M374 414q-5 14 -6.5 24t-1.5 16v13h225v-467h-224l1 16q1 10 3.5 22t5.5 21h-7q-20 -25 -40 -39t-39 -21.5t-34.5 -9.5t-26.5 -2q-35 0 -68.5 12t-63.5 43t-50 78t-20 111q0 63 20 111.5t53 81.5q26 26 59.5 41t78.5 15q11 0 26 -2t32 -9t35.5 -20.5t36.5 -37.5zM254 234
q0 -17 6 -29t14 -20q16 -16 39 -16t39 15q10 10 16 23t6 29q0 17 -6 29t-14 20q-17 15 -39 15q-25 0 -41 -16q-8 -8 -14 -20.5t-6 -29.5z" />
    <glyph glyph-name="b" unicode="b" horiz-adv-x="637" 
d="M48 729h228v-262q0 -14 -3 -31.5t-8 -33.5h7q21 35 51 53q17 11 41 18t48 7q32 0 63 -14t57 -38q34 -32 55.5 -84t21.5 -116q0 -59 -18 -108t-52 -82q-29 -29 -62.5 -40t-68.5 -11q-27 0 -49.5 6.5t-45.5 23.5q-18 13 -29 27t-19 28l-7 -3q7 -19 7 -36v-33h-217v729z
M387 236q0 18 -6 31.5t-14 21.5t-19.5 13t-22.5 5t-21.5 -3.5t-19.5 -12.5q-8 -8 -13.5 -20t-5.5 -32q0 -14 4 -30.5t15 -27.5q8 -8 19 -12t21 -4q26 0 43 19q10 11 15 23t5 29z" />
    <glyph glyph-name="b" unicode="&#xe003;" horiz-adv-x="637" 
d="M48 729h228v-262q0 -14 -3 -31.5t-8 -33.5h7q21 35 51 53q17 11 41 18t48 7q32 0 63 -14t57 -38q34 -32 55.5 -84t21.5 -116q0 -59 -18 -108t-52 -82q-29 -29 -62.5 -40t-68.5 -11q-27 0 -49.5 6.5t-45.5 23.5q-18 13 -29 27t-19 28l-7 -3q7 -19 7 -36v-33h-217v729z
M387 236q0 18 -6 31.5t-14 21.5t-19.5 13t-22.5 5t-21.5 -3.5t-19.5 -12.5q-8 -8 -13.5 -20t-5.5 -32q0 -14 4 -30.5t15 -27.5q8 -8 19 -12t21 -4q26 0 43 19q10 11 15 23t5 29z" />
    <glyph glyph-name="c" unicode="c" horiz-adv-x="444" 
d="M407 11q-20 -10 -47 -17t-68 -7q-39 0 -70 6.5t-55 16t-42 22t-30 24.5q-28 27 -47.5 69.5t-19.5 101.5q0 60 20 107t52 79q41 41 88 54t93 13q29 0 62.5 -5t69.5 -19v-190q-29 26 -51 31.5t-34 5.5q-13 0 -26 -3.5t-24 -14.5q-19 -21 -19 -49q0 -30 19 -49
q20 -20 48 -20q24 0 48 10t42 27z" />
    <glyph glyph-name="d" unicode="d" horiz-adv-x="637" 
d="M362 729h227v-729h-220v21q0 12 2.5 28.5t4.5 24.5l-7 1q-8 -16 -21.5 -32.5t-30.5 -28.5q-19 -13 -44 -20t-53 -7q-35 0 -67 13.5t-56 38.5q-35 35 -52 87.5t-17 105.5q0 63 20 113t52 82q19 19 50 36t76 17q26 0 48 -7t40 -19q14 -10 27.5 -24t22.5 -25h7
q-3 14 -6 32.5t-3 35.5v256zM371 237q0 16 -6 32t-17 27q-15 15 -38 15q-15 0 -24.5 -4.5t-14.5 -9.5q-10 -9 -16 -25.5t-6 -30.5q0 -17 6 -32t17 -26q16 -16 39 -16t38 14q5 5 13.5 18t8.5 38z" />
    <glyph glyph-name="e" unicode="e" horiz-adv-x="613" 
d="M254 196q-1 -17 3 -37t14 -31q4 -5 12 -9t22 -4q11 0 19.5 4t14.5 9q5 5 9 12t6 15h222q-8 -26 -20 -44.5t-27 -35.5q-18 -20 -38 -36t-45.5 -27.5t-57.5 -18t-73 -6.5q-27 0 -56 3t-57.5 11.5t-56 23.5t-51.5 39q-11 11 -22.5 26.5t-21.5 35.5t-16 45.5t-6 55.5
q0 50 18 96t52 80q33 32 85 54.5t123 22.5q67 0 116.5 -20t84.5 -54q38 -36 58 -85.5t20 -98.5v-26h-331zM363 293q-1 12 -6 25.5t-14 21.5q-13 13 -36 13q-19 0 -33 -12q-8 -8 -13 -22t-5 -26h107z" />
    <glyph glyph-name="f" unicode="f" horiz-adv-x="380" 
d="M70 0v293l-62 -7v181l62 -6v77q0 16 1.5 35.5t7 39t16 39t28.5 36.5q21 20 57.5 36t95.5 16q8 0 34.5 -1t62.5 -9v-181q-7 3 -15 5.5t-16 2.5t-17 -3t-16 -10q-10 -9 -12.5 -20t-2.5 -19v-46l77 8v-181l-74 7v-293h-227z" />
    <glyph glyph-name="g" unicode="g" horiz-adv-x="635" 
d="M587 27q0 -51 -13.5 -91t-51.5 -79q-26 -27 -55.5 -43.5t-60 -26t-62 -13t-61.5 -3.5q-60 0 -111.5 9.5t-83.5 20.5l-40 14l51 158q16 -13 32.5 -22t33.5 -17q20 -8 40 -13t43 -5q22 0 45 5.5t43 25.5q17 17 23 36t8 39l4 46h-5q-9 -19 -22 -32.5t-27 -22.5
q-20 -13 -41.5 -17t-41.5 -4q-81 0 -137 57q-35 35 -52 85t-17 101q0 52 19.5 105t54.5 87q21 20 53.5 36.5t78.5 16.5q14 0 36 -3.5t43 -17.5q14 -10 28.5 -26t24.5 -31h5q-3 11 -4 18.5t-1 17.5v29h221v-440zM249 234q0 -27 17 -45q11 -12 23 -17t26 -5q23 0 39 15
q13 12 16 24.5t3 23.5q0 10 -2.5 25.5t-15.5 27.5q-8 7 -19.5 12t-23.5 5q-11 0 -22 -4t-22 -15q-19 -19 -19 -47z" />
    <glyph glyph-name="h" unicode="h" horiz-adv-x="625" 
d="M48 0v729h227v-262q0 -17 -1 -34t-6 -40l3 -2q13 17 30 34t31 27q42 28 92 28q28 0 56 -11t47 -29q22 -21 36 -57t14 -84v-299h-222v253q0 8 -2 17t-10 17q-6 6 -12.5 8t-11.5 2q-9 0 -18 -4t-14 -9q-8 -8 -10 -17t-2 -17v-250h-227z" />
    <glyph glyph-name="i" unicode="i" horiz-adv-x="323" 
d="M48 0v467h227v-467h-227zM287 613q0 -22 -8 -41t-21 -33q-16 -17 -42 -26.5t-55 -9.5t-55 9.5t-42 26.5q-13 14 -21 33t-8 41t8 41t21 33q16 17 42 26.5t55 9.5t55 -9.5t42 -26.5q13 -14 21 -33t8 -41z" />
    <glyph glyph-name="j" unicode="j" horiz-adv-x="323" 
d="M48 -229v696h227v-696h-227zM287 613q0 -22 -8 -41t-21 -33q-16 -17 -42 -26.5t-55 -9.5t-55 9.5t-42 26.5q-13 14 -21 33t-8 41t8 41t21 33q16 17 42 26.5t55 9.5t55 -9.5t42 -26.5q13 -14 21 -33t8 -41z" />
    <glyph glyph-name="k" unicode="k" horiz-adv-x="646" 
d="M48 0v729h227v-434h6l1 3l88 169h266l-172 -227l180 -240h-268l-97 172h-4v-172h-227z" />
    <glyph glyph-name="l" unicode="l" horiz-adv-x="323" 
d="M48 0v729h227v-729h-227z" />
    <glyph glyph-name="m" unicode="m" horiz-adv-x="889" 
d="M48 0v467h214v-36q0 -11 -2.5 -22t-5.5 -21l7 -2q7 17 18.5 34t25.5 29q19 15 44.5 23t50.5 8q26 0 47 -7t36 -19q16 -12 29 -31t21 -43h6q6 19 18 37.5t29 32.5q23 19 48 24.5t45 5.5q44 0 71 -13.5t43 -29.5q23 -24 36 -60t13 -75v-302h-220v257q0 8 -1.5 17.5
t-9.5 17.5t-20 8q-5 0 -11.5 -2t-12.5 -8q-8 -8 -10 -16.5t-2 -16.5v-257h-220v263q0 16 -8 27q-2 3 -8 6.5t-15 3.5q-17 0 -26 -11q-7 -8 -8.5 -20t-1.5 -20v-249h-220z" />
    <glyph glyph-name="n" unicode="n" horiz-adv-x="629" 
d="M48 0v467h223v-24q0 -12 -2.5 -24.5t-6.5 -23.5l5 -1q14 17 31.5 34t31.5 27q38 25 85 25q41 0 69 -13t45 -29q17 -17 27.5 -35.5t16 -36.5t7 -35.5t1.5 -30.5v-300h-227v254q0 17 -4 25.5t-6 10.5q-6 7 -13 8.5t-13 1.5q-18 0 -29 -11q-10 -10 -12 -22.5t-2 -23.5v-243
h-227z" />
    <glyph glyph-name="o" unicode="o" horiz-adv-x="626" 
d="M598 234q0 -51 -19 -94.5t-48 -73.5q-14 -15 -34 -29t-47 -25t-61 -18t-76 -7t-76 7t-61 18t-47 25t-34 29q-29 30 -48 73.5t-19 94.5q0 43 16.5 87.5t50.5 79.5q14 15 34 29t47 25t61 18t76 7t76 -7t61 -18t47 -25t34 -29q34 -35 50.5 -79.5t16.5 -87.5zM313 300
q-17 0 -28 -5.5t-16 -10.5q-8 -8 -14 -20t-6 -30q0 -19 6 -31t14 -20q5 -5 16 -10.5t28 -5.5t28 5.5t16 10.5q8 8 14 20t6 31q0 18 -6 30t-14 20q-5 5 -16 10.5t-28 5.5z" />
    <glyph glyph-name="p" unicode="p" horiz-adv-x="637" 
d="M48 -229v696h217v-26q0 -11 -1.5 -22t-4.5 -19l-1 -3l7 -2q10 17 22.5 31t25.5 24q16 11 39.5 20.5t55.5 9.5q41 0 75 -14.5t58 -38.5q35 -35 51.5 -86.5t16.5 -104.5q0 -37 -7 -67t-17.5 -53.5t-23.5 -41.5t-25 -31q-53 -56 -124 -56q-23 0 -46 6t-46 21q-13 9 -25.5 21
t-22.5 29h-7q7 -27 9 -47.5t2 -43.5v-202h-228zM265 231q0 -36 20 -56q8 -9 18 -12t21 -3q23 0 40 15q11 11 17 25.5t6 30.5q0 17 -6 31t-16 24q-6 6 -16.5 11.5t-25.5 5.5q-11 0 -20.5 -4t-16.5 -10q-11 -11 -16 -27.5t-5 -30.5z" />
    <glyph glyph-name="q" unicode="q" horiz-adv-x="639" 
d="M364 -229v235q0 11 3 27.5t6 28.5h-7q-10 -13 -24 -27t-28 -23q-17 -11 -41 -18t-48 -7q-31 0 -63.5 12.5t-61.5 41.5q-30 31 -51 80t-21 113q0 71 22.5 119.5t52.5 77.5q28 26 57.5 37.5t61.5 11.5q55 0 96 -29q8 -5 23.5 -19.5t29.5 -39.5l7 1q-3 10 -5 21.5t-2 22.5
v30h220v-696h-227zM249 226q0 -31 19 -52q7 -8 18 -13.5t25 -5.5q24 0 40 17q11 11 16.5 26t5.5 31q0 17 -6 32t-17 25q-7 6 -16.5 10t-21.5 4q-24 0 -41 -17q-11 -10 -16.5 -25t-5.5 -32z" />
    <glyph glyph-name="r" unicode="r" horiz-adv-x="443" 
d="M48 0v467h229v-29q0 -16 -6 -31h4q11 20 26.5 34.5t30.5 22.5q16 9 34 13.5t33 6t25.5 1.5h11.5v-237q-23 14 -38 20t-33 6q-20 0 -35.5 -6t-26.5 -16q-18 -16 -23 -34t-5 -35v-183h-227z" />
    <glyph glyph-name="s" unicode="s" horiz-adv-x="487" 
d="M399 309q-12 9 -22.5 15t-24.5 12t-27.5 10t-30.5 4q-6 0 -13 -1.5t-12 -5.5q-9 -7 -9 -18q0 -6 2.5 -9.5t4.5 -5.5q5 -4 11.5 -5t15.5 -3l46 -10q23 -5 47.5 -14.5t44.5 -29.5q11 -12 22 -33.5t11 -53.5q0 -35 -12.5 -63.5t-34.5 -49.5q-20 -20 -43 -32t-46 -18.5
t-45.5 -8.5t-42.5 -2q-65 0 -110.5 13t-74.5 25l-33 14l58 142l32 -20q23 -14 48 -23t45 -9q7 0 15.5 1.5t15.5 6.5q9 6 9 18q0 11 -9 19q-9 6 -32 10l-33 5q-18 3 -40.5 11t-42.5 28t-28 42t-8 47q0 40 17 69t49 51q40 28 81.5 35.5t77.5 7.5q38 0 82 -8.5t94 -31.5z" />
    <glyph glyph-name="s" unicode="&#xe004;" horiz-adv-x="487" 
d="M399 309q-12 9 -22.5 15t-24.5 12t-27.5 10t-30.5 4q-6 0 -13 -1.5t-12 -5.5q-9 -7 -9 -18q0 -6 2.5 -9.5t4.5 -5.5q5 -4 11.5 -5t15.5 -3l46 -10q23 -5 47.5 -14.5t44.5 -29.5q11 -12 22 -33.5t11 -53.5q0 -35 -12.5 -63.5t-34.5 -49.5q-20 -20 -43 -32t-46 -18.5
t-45.5 -8.5t-42.5 -2q-65 0 -110.5 13t-74.5 25l-33 14l58 142l32 -20q23 -14 48 -23t45 -9q7 0 15.5 1.5t15.5 6.5q9 6 9 18q0 11 -9 19q-9 6 -32 10l-33 5q-18 3 -40.5 11t-42.5 28t-28 42t-8 47q0 40 17 69t49 51q40 28 81.5 35.5t77.5 7.5q38 0 82 -8.5t94 -31.5z" />
    <glyph glyph-name="t" unicode="t" horiz-adv-x="367" 
d="M65 0v292l-57 -4v179l57 -4v170h227v-170l77 4v-179l-77 4v-292h-227z" />
    <glyph glyph-name="u" unicode="u" horiz-adv-x="628" 
d="M48 467h227v-253q0 -9 1.5 -19t9.5 -18q6 -7 13 -8.5t14 -1.5t14 1.5t14 8.5q8 8 10 17.5t2 19.5v253h227v-269q0 -26 -10 -61.5t-44 -71.5q-33 -35 -87 -56.5t-126 -21.5t-125 21.5t-85 53.5q-25 25 -40 57t-15 72v276z" />
    <glyph glyph-name="v" unicode="v" horiz-adv-x="596" 
d="M-10 467h245l51 -173q2 -8 4.5 -22t4.5 -25h7q0 7 1.5 19.5t6.5 27.5l52 173h244l-203 -467h-207z" />
    <glyph glyph-name="w" unicode="w" horiz-adv-x="845" 
d="M-10 467h240l45 -191q4 -16 6.5 -30.5t2.5 -36.5h7q0 21 2.5 36.5t6.5 30.5l48 191h149l50 -191q4 -14 6.5 -32t4.5 -35h6q0 23 2.5 37t6.5 30l43 191h239l-192 -467h-184l-45 169l-7 38h-6l-8 -38l-46 -169h-187z" />
    <glyph glyph-name="x" unicode="x" horiz-adv-x="646" 
d="M17 467h262l34 -66q7 -13 10 -30h6q2 10 5 16.5t6 13.5l34 66h261l-177 -224l190 -243h-268l-42 76q-7 11 -10 27h-5q-3 -15 -9 -27l-41 -76h-275l197 243z" />
    <glyph glyph-name="y" unicode="y" horiz-adv-x="601" 
d="M-10 467h245l56 -192q9 -30 10 -61h6q1 17 3.5 33.5t6.5 30.5l54 189h240l-317 -696h-241l138 276z" />
    <glyph glyph-name="y" unicode="&#xe006;" horiz-adv-x="601" 
d="M-10 467h245l56 -192q9 -30 10 -61h6q1 17 3.5 33.5t6.5 30.5l54 189h240l-317 -696h-241l138 276z" />
    <glyph glyph-name="z" unicode="z" horiz-adv-x="549" 
d="M516 0h-495v31l145 220q6 9 19 22t22 21v4q-12 -5 -21 -6t-20 -1h-122v176h483v-24l-151 -225q-14 -21 -37 -41v-6q7 2 17.5 4t18.5 2h141v-177z" />
    <glyph glyph-name="braceleft" unicode="{" 
d="M304 394q0 -20 -2 -40t-12 -40t-22.5 -30.5t-23.5 -15.5q20 -11 31 -25t16 -25q10 -20 11.5 -39.5t1.5 -37.5v-161q0 -4 1.5 -19.5t10.5 -24.5q5 -5 13 -8t16.5 -4t16.5 -1h13q14 0 17 0.5t11 0.5v-115q-35 -1 -50.5 -1.5t-26.5 -0.5q-14 0 -30 1t-32 4.5t-31.5 11
t-27.5 20.5q-22 23 -26.5 53.5t-4.5 53.5v181q0 17 -2 34t-11 29q-5 8 -15.5 14.5t-26.5 8.5v110q13 1 24 6t17 13q8 9 11 22t3 27v188q0 28 4.5 57t30.5 54q13 12 28.5 19t31.5 10.5t31 4t28 0.5q21 0 41.5 -1t33.5 -2v-114h-20q-18 0 -37.5 -1t-30.5 -12q-8 -8 -9.5 -20.5
t-1.5 -23.5v-161v0z" />
    <glyph glyph-name="bar" unicode="|" 
d="M185 750h130v-1000h-130v1000z" />
    <glyph glyph-name="braceright" unicode="}" 
d="M218 555q0 11 -1.5 23.5t-9.5 20.5q-11 11 -30.5 12t-37.5 1h-20v114q13 1 33.5 2t41.5 1q13 0 28 -0.5t31 -4t31.5 -10.5t28.5 -19q26 -25 30.5 -54t4.5 -57v-188q0 -14 3 -27t11 -22q6 -8 17 -13t24 -6v-110q-16 -2 -26.5 -8.5t-15.5 -14.5q-9 -12 -11 -29t-2 -34v-181
q0 -23 -4.5 -53.5t-26.5 -53.5q-12 -13 -27.5 -20.5t-31.5 -11t-32.5 -4.5t-29.5 -1q-11 0 -26.5 0.5t-50.5 1.5v115q8 0 11 -0.5t17 -0.5h13t16.5 1t16.5 4t13 8q9 9 10.5 24.5t1.5 19.5v161q0 18 1.5 37.5t11.5 39.5q5 11 16 25t31 25q-11 5 -23.5 15.5t-22.5 30.5t-12 40
t-2 40v161z" />
    <glyph glyph-name="asciitilde" unicode="~" 
d="M225 236q-21 7 -39.5 13.5t-35.5 6.5q-14 0 -25.5 -4.5t-19.5 -12.5q-8 -7 -15.5 -19t-12.5 -25l-71 47l8 17q14 31 26.5 53.5t28.5 36.5q11 11 32 21.5t53 10.5q24 0 46 -5.5t40 -12.5l43 -16q16 -6 31 -10.5t37 -4.5q11 0 20 2t18 9t17.5 19t13.5 21l74 -43
q-8 -22 -24 -49t-34 -45q-39 -40 -95 -40q-23 0 -40.5 5.5t-36.5 11.5z" />
    <glyph glyph-name="exclamdown" unicode="&#xa1;" horiz-adv-x="409" 
d="M89 182h233v-412h-233v412zM73 337q0 19 8 39t23 35q20 20 47.5 29t53.5 9t53 -9t47 -29q15 -15 23 -35t8 -39q0 -18 -8 -38t-23 -35q-20 -20 -47 -29t-53 -9t-53.5 9t-47.5 29q-15 15 -23 35t-8 38z" />
    <glyph glyph-name="cent" unicode="&#xa2;" horiz-adv-x="707" 
d="M333 10v102q-39 5 -67.5 20.5t-48.5 33.5q-32 30 -52.5 77t-20.5 103q0 49 17.5 91t45.5 72q20 22 51.5 41.5t74.5 27.5v92h104v-90q43 -3 82 -17l5 -186q-24 17 -43.5 26t-42.5 9q-14 0 -26 -4t-23 -15q-17 -17 -17 -44q0 -15 4 -27.5t17 -23.5q9 -8 20.5 -12.5
t25.5 -4.5t35 6.5t51 30.5l-3 -187q-20 -7 -41 -12t-44 -8v-101h-104z" />
    <glyph glyph-name="sterling" unicode="&#xa3;" horiz-adv-x="707" 
d="M638 162q0 -42 -13.5 -76.5t-34.5 -56.5q-25 -26 -53.5 -34.5t-58.5 -8.5q-4 0 -15 0.5t-26.5 2t-34 5.5t-37.5 12l-41 16q-17 7 -34 11.5t-37 4.5q-12 0 -23.5 -3t-21.5 -12q-11 -10 -14 -23h-113q1 33 11 62t27 51q11 15 33 33.5t57 29.5q3 8 4 17.5t1 17.5q0 20 -3 32
h-120v110h83q-16 26 -25.5 55.5t-9.5 55.5q0 37 15 77t47 72q26 26 70.5 47.5t113.5 21.5q59 0 103 -18t71 -46q21 -22 32.5 -45.5t16.5 -46.5t6 -45t1 -41v-12h-154v8q0 14 -2 35t-13 37q-8 11 -21.5 18t-30.5 7q-14 0 -27.5 -5t-21.5 -13q-10 -9 -15 -23t-5 -28
q0 -17 6 -32.5t11 -26.5q7 -14 11.5 -24t7.5 -28h127v-110h-118q1 -5 1 -10v-10q0 -20 -3.5 -35t-8.5 -26l14 -6q24 -11 49 -21t49 -10q8 0 15.5 2t13.5 8q10 10 12 27h126z" />
    <glyph glyph-name="currency" unicode="&#xa4;" horiz-adv-x="376" 
d="M67 0v667h242v-667h-242z" />
    <glyph glyph-name="yen" unicode="&#xa5;" horiz-adv-x="707" 
d="M18 667h273l65 -182l61 182h272l-120 -213h91v-118h-157l-28 -49v-36h185v-118h-185v-133h-239v133h-189v118h189v36l-28 49h-161v118h93z" />
    <glyph glyph-name="brokenbar" unicode="&#xa6;" 
d="M185 750h130v-410h-130v410zM185 160h130v-410h-130v410z" />
    <glyph glyph-name="section" unicode="&#xa7;" horiz-adv-x="707" 
d="M434 471q41 -11 77 -26t62 -40q20 -19 34 -47t14 -67q0 -32 -9 -57t-22.5 -44.5t-30 -33t-30.5 -22.5q24 -16 37.5 -35.5t20.5 -39t9 -37t2 -29.5q0 -28 -9.5 -62t-40.5 -64q-21 -20 -45.5 -32t-50 -18t-51.5 -8t-50 -2t-52 2t-56 9t-54.5 20t-48.5 35q-18 18 -35 51
t-19 81h185q1 -12 6 -27.5t16 -25.5q11 -11 24.5 -13.5t24.5 -2.5q9 0 22.5 2.5t24.5 13.5q14 14 14 42q0 29 -25 45q-11 7 -25.5 11.5t-44.5 13.5l-51 15q-35 10 -66 23t-54 36q-20 20 -32.5 48.5t-12.5 63.5q0 47 21.5 88.5t65.5 69.5q-21 14 -33.5 29t-17.5 24
q-11 20 -15.5 39.5t-4.5 41.5q0 43 16 72t34 48q22 22 47.5 35t52.5 20t54 9.5t52 2.5q23 0 49 -2.5t51.5 -9.5t50 -20t44.5 -33q24 -25 39.5 -61.5t16.5 -79.5h-178q-1 15 -6 31.5t-13 25.5q-16 19 -53 19q-12 0 -25 -3.5t-21 -9.5q-6 -5 -11.5 -14t-5.5 -23q0 -22 18 -37
q5 -4 17 -10.5t44 -15.5zM420 271q0 9 -4.5 22.5t-12.5 21.5q-8 9 -22 15t-27 6q-12 0 -24 -4.5t-22 -13.5q-19 -19 -19 -47q0 -15 6 -28t15 -21q7 -6 17.5 -11.5t26.5 -5.5q31 0 47 18q8 8 13.5 21.5t5.5 26.5z" />
    <glyph glyph-name="dieresis" unicode="&#xa8;" 
d="M51 622q0 38 26 64.5t64 26.5t64.5 -26.5t26.5 -64.5t-26.5 -64.5t-64.5 -26.5t-64 26.5t-26 64.5zM268 622q0 38 26 64.5t64 26.5t64.5 -26.5t26.5 -64.5t-26.5 -64.5t-64.5 -26.5t-64 26.5t-26 64.5z" />
    <glyph glyph-name="copyright" unicode="&#xa9;" horiz-adv-x="760" 
d="M510 145q-14 -5 -40.5 -11.5t-61.5 -6.5t-62 7t-47.5 16.5t-34 20t-20.5 18.5q-26 26 -42 62.5t-16 78.5q0 41 16 80.5t47 68.5q23 22 62.5 41t101.5 19q31 0 55.5 -5.5t41.5 -11.5l3 -160q-8 8 -18 15.5t-18 11.5q-10 5 -24.5 9t-27.5 4q-17 0 -30.5 -6t-22.5 -15
q-11 -10 -15.5 -22.5t-4.5 -24.5q0 -27 19 -46q10 -10 24 -16.5t31 -6.5q13 0 27 3t27 10q9 5 18 12t15 13zM727 334q0 -63 -24.5 -128t-78.5 -119q-60 -60 -123.5 -81t-120.5 -21t-120.5 21t-123.5 81q-54 54 -78.5 119t-24.5 128t24.5 127.5t78.5 118.5q60 60 123.5 81
t120.5 21t120.5 -21t123.5 -81q54 -54 78.5 -118.5t24.5 -127.5zM380 609q-59 0 -104 -21t-82 -58q-43 -44 -62 -92t-19 -105t19 -105t62 -92q37 -37 82 -58t104 -21t104 21t82 58q43 44 62 92t19 105t-19 105t-62 92q-37 37 -82 58t-104 21z" />
    <glyph glyph-name="ordfeminine" unicode="&#xaa;" horiz-adv-x="363" 
d="M211 427q-6 -7 -14.5 -14.5t-18.5 -13.5q-22 -13 -48 -13q-43 0 -74 32q-14 15 -27 41t-13 66q0 29 10 59t31 51q14 14 34 23t45 9q10 0 21 -2t22 -9q7 -5 16 -12.5t16 -15.5q-1 4 -2 9t-1 10v12h129v-266h-128v9q0 7 2.5 15t3.5 10h-4zM22 267v92h315v-92h-315zM145 527
q0 -19 11 -28q9 -9 23 -9t23 9q11 9 11 28q0 16 -11 27q-9 9 -23 9t-23 -9q-11 -11 -11 -27z" />
    <glyph glyph-name="guillemotleft" unicode="&#xab;" horiz-adv-x="547" 
d="M184 5l-151 227l159 225l92 -64l-113 -161l105 -162zM405 5l-151 227l159 225l92 -64l-113 -161l105 -162z" />
    <glyph glyph-name="logicalnot" unicode="&#xac;" 
d="M337 0v150h-304v117h434v-267h-130z" />
    <glyph glyph-name="uni00AD" unicode="&#xad;" horiz-adv-x="415" 
d="M50 175v180h315v-180h-315z" />
    <glyph glyph-name="registered" unicode="&#xae;" horiz-adv-x="760" 
d="M213 159v359h183q28 0 59.5 -6t56.5 -30q16 -16 25 -39t9 -50q0 -25 -7 -41t-15 -25q-10 -11 -23 -18.5t-30 -10.5q5 -4 10 -9.5t9 -10.5l79 -119h-158l-56 113v-113h-142zM355 359h21q5 0 12 1t12 5q4 3 7 8.5t3 15.5q0 9 -3 14t-6 8q-5 4 -11.5 5.5t-11.5 1.5h-23v-59z
M380 609q-59 0 -104 -21t-82 -58q-43 -44 -62 -92t-19 -105t19 -105t62 -92q37 -37 82 -58t104 -21t104 21t82 58q43 44 62 92t19 105t-19 105t-62 92q-37 37 -82 58t-104 21zM727 334q0 -63 -24.5 -128t-78.5 -119q-60 -60 -123.5 -81t-120.5 -21t-120.5 21t-123.5 81
q-54 54 -78.5 119t-24.5 128t24.5 127.5t78.5 118.5q60 60 123.5 81t120.5 21t120.5 -21t123.5 -81q54 -54 78.5 -118.5t24.5 -127.5z" />
    <glyph glyph-name="macron" unicode="&#xaf;" 
d="M80 544v100h340v-100h-340z" />
    <glyph glyph-name="degree" unicode="&#xb0;" 
d="M252 363q-39 0 -66.5 14t-44.5 31q-16 16 -30.5 42.5t-14.5 65.5q0 23 8.5 51t36.5 55q24 23 52 34t56 11q32 0 61 -12t49 -32q20 -19 32.5 -46.5t12.5 -60.5q0 -23 -8.5 -51.5t-36.5 -56.5q-45 -45 -107 -45zM180 515q0 -28 20.5 -48t49.5 -20t49.5 20t20.5 48t-20.5 48
t-49.5 20t-49.5 -20t-20.5 -48z" />
    <glyph glyph-name="plusminus" unicode="&#xb1;" 
d="M33 477h152v153h130v-153h152v-120h-152v-154h-130v154h-152v120zM33 170h434v-120h-434v120z" />
    <glyph glyph-name="twosuperior" unicode="&#xb2;" horiz-adv-x="451" 
d="M411 270h-401l164 147q17 14 30 27.5t28 30.5q8 9 18.5 25t10.5 33q0 15 -10 23q-5 4 -12 6t-13 2q-11 0 -17.5 -3.5t-9.5 -8.5q-8 -11 -8 -35v-7h-143q0 37 10.5 67.5t28.5 50.5q17 20 52 37t92 17q35 0 70.5 -10t64.5 -38q41 -40 41 -96q0 -32 -11 -56t-31 -41
q-11 -10 -26 -19t-30 -17t-27.5 -13.5t-17.5 -7.5v-4q8 1 19 3t23 4t23.5 3.5t20.5 1.5l61 2v-124z" />
    <glyph glyph-name="threesuperior" unicode="&#xb3;" horiz-adv-x="435" 
d="M329 485q16 -7 26 -14.5t16 -13.5q11 -11 17.5 -26.5t6.5 -35.5q0 -17 -6 -39.5t-29 -45.5q-30 -30 -69 -39t-73 -9q-66 0 -103.5 16t-55.5 34q-14 14 -26.5 39.5t-12.5 61.5h148q0 -27 13 -38q7 -7 14.5 -8.5t15.5 -1.5q17 0 28 11q6 6 8 12.5t2 14.5q0 6 -1.5 13
t-7.5 12q-7 7 -16.5 8.5t-18.5 1.5h-13v82q10 0 20 1t15 6q8 8 8 24q0 9 -2.5 14.5t-4.5 8.5q-5 5 -11 6.5t-11 1.5t-11.5 -1.5t-11.5 -6.5t-7 -13t-2 -15h-140q1 23 7.5 41t15 31.5t18 22t17.5 13.5q27 18 59.5 23t56.5 5q32 0 69 -7.5t68 -36.5q15 -14 24 -33t9 -43
q0 -7 -2 -21.5t-12 -29.5q-8 -13 -17.5 -18.5t-17.5 -7.5z" />
    <glyph glyph-name="acute" unicode="&#xb4;" 
d="M250 742l117 -73l-146 -128l-87 55z" />
    <glyph glyph-name="mu" unicode="&#xb5;" horiz-adv-x="652" 
d="M48 -230v697h227v-278q0 -9 2 -20t9 -20q8 -11 18.5 -14t20.5 -3q8 0 19.5 2.5t20.5 13.5t10.5 23t1.5 20v276h227v-467h-220v9q0 11 1.5 27t3.5 24h-6q-2 -13 -8 -27t-12 -22q-14 -17 -39 -17q-23 0 -38 18q-6 8 -12 22t-8 26h-6l5 -35t3 -35v-220h-220z" />
    <glyph glyph-name="paragraph" unicode="&#xb6;" horiz-adv-x="688" 
d="M218 -95v409h-13q-12 0 -28.5 1t-34 5.5t-35.5 13.5t-34 25q-17 17 -31.5 47t-14.5 77t14 77.5t32 48.5q35 35 87 46.5t113 11.5h342v-110h-70v-652h-122v652h-83v-652h-122z" />
    <glyph glyph-name="periodcentered" unicode="&#xb7;" horiz-adv-x="303" 
d="M303 340q0 -50 -39 -86q-22 -20 -51 -31t-61 -11t-62 11t-51 31q-39 36 -39 86t39 86q21 20 51 31t62 11t61 -11t51 -31q39 -36 39 -86z" />
    <glyph glyph-name="cedilla" unicode="&#xb8;" 
d="M258 -250l-100 70l120 135l106 -76z" />
    <glyph glyph-name="onesuperior" unicode="&#xb9;" horiz-adv-x="313" 
d="M97 267v276l-62 -4v128h208v-400h-146z" />
    <glyph glyph-name="ordmasculine" unicode="&#xba;" horiz-adv-x="357" 
d="M21 267v92h315v-92h-315zM178 564q-14 0 -25 -9q-11 -11 -11 -29q0 -19 11 -28t25 -9t25 9q5 5 8 13t3 15q0 8 -3 16t-8 13q-11 9 -25 9zM341 527q0 -24 -9 -49.5t-29 -45.5q-22 -22 -55 -34t-69 -12q-37 0 -70 12t-55 34q-18 18 -28 43.5t-10 51.5q0 25 10 50t28 44
q22 22 55 34t70 12q35 0 68.5 -12t55.5 -34q18 -19 28 -44t10 -50z" />
    <glyph glyph-name="guillemotright" unicode="&#xbb;" horiz-adv-x="547" 
d="M376 232l-113 161l92 64l159 -225l-151 -227l-92 65zM155 232l-113 161l92 64l159 -225l-151 -227l-92 65z" />
    <glyph glyph-name="onequarter" unicode="&#xbc;" horiz-adv-x="920" 
d="M833 0h-146l4 81l-205 -5v106l166 218h181v-214l52 5v-114l-55 4zM698 186v51q0 12 0.5 22t2.5 21l-6 3q-5 -7 -11 -15t-11 -14l-36 -46q-5 -7 -10 -12l-10 -10l2 -4q11 3 18.5 3.5t17.5 0.5h43zM97 267v276l-62 -4v128h208v-400h-146zM549 667h110l-388 -667h-109z" />
    <glyph glyph-name="onehalf" unicode="&#xbd;" horiz-adv-x="930" 
d="M97 267v276l-62 -4v128h208v-400h-146zM895 0h-401l164 147q17 14 30 27.5t28 30.5q8 9 18.5 24.5t10.5 32.5q0 16 -10 24q-5 4 -12 6t-13 2q-17 0 -26 -12q-6 -8 -7.5 -17t-1.5 -18v-7h-143q0 37 10.5 67.5t28.5 50.5q17 20 52 37t92 17q35 0 70.5 -10t64.5 -38
q22 -20 31.5 -43.5t9.5 -52.5q0 -32 -10 -55t-32 -42q-20 -18 -50 -33t-51 -24v-4q8 1 19 3t23 4t23.5 3.5t20.5 1.5l61 2v-124zM549 667h110l-388 -667h-109z" />
    <glyph glyph-name="threequarters" unicode="&#xbe;" horiz-adv-x="1016" 
d="M344 485q16 -7 26 -14.5t16 -13.5q11 -11 17.5 -26.5t6.5 -35.5q0 -17 -6 -39.5t-29 -45.5q-30 -30 -69 -39t-73 -9q-66 0 -103.5 16t-55.5 34q-14 14 -26.5 39.5t-12.5 61.5h148q0 -27 13 -38q7 -7 14.5 -8.5t15.5 -1.5q17 0 28 11q6 6 8 12.5t2 14.5q0 6 -1.5 13
t-7.5 12q-7 7 -16.5 8.5t-18.5 1.5h-13v82q10 0 20 1t15 6q8 8 8 24q0 9 -2.5 14.5t-4.5 8.5q-5 5 -11 6.5t-11 1.5t-11.5 -1.5t-11.5 -6.5t-7 -13t-2 -15h-140q1 23 7.5 41t15 31.5t18 22t17.5 13.5q27 18 59.5 23t56.5 5q32 0 69 -7.5t68 -36.5q15 -14 24 -33t9 -43
q0 -7 -2 -21.5t-12 -29.5q-8 -13 -17.5 -18.5t-17.5 -7.5zM929 0h-146l4 81l-205 -5v106l166 218h181v-214l52 5v-114l-55 4zM794 186v51q0 12 0.5 22t2.5 21l-6 3q-5 -7 -11 -15t-11 -14l-36 -46q-5 -7 -10 -12l-10 -10l2 -4q11 3 18.5 3.5t17.5 0.5h43zM656 667h110
l-388 -667h-109z" />
    <glyph glyph-name="questiondown" unicode="&#xbf;" horiz-adv-x="614" 
d="M574 -20q-6 -45 -25 -83t-46 -65q-32 -32 -81.5 -53t-121.5 -21q-38 0 -68.5 6t-55 16t-43 22.5t-32.5 25.5q-29 28 -45 64t-16 84q0 55 17 90.5t36 55.5q38 39 91 51.5t111 12.5q25 0 45 -1.5t42 -6.5v-151q-21 9 -48 9q-12 0 -27 -3.5t-28 -15.5q-8 -8 -14 -20.5
t-6 -29.5t5 -25.5t8 -11.5q11 -11 29 -11q15 0 23 5.5t11 8.5q8 9 10.5 22t2.5 25h226zM174 337q0 19 8 39t23 35q20 20 47.5 29t53.5 9t53 -9t47 -29q15 -15 23 -35t8 -39q0 -18 -8 -38t-23 -35q-20 -20 -47 -29t-53 -9t-53.5 9t-47.5 29q-15 15 -23 35t-8 38z" />
    <glyph glyph-name="Agrave" unicode="&#xc0;" horiz-adv-x="737" 
d="M274 83l-18 -83h-256l231 667h268l238 -667h-257l-22 83h-184zM385 369q-5 20 -8 38.5t-5 36.5h-9q-1 -21 -3.5 -39t-7.5 -36l-33 -128h97l-31 128v0zM381 925l115 -146l-86 -55l-146 128z" />
    <glyph glyph-name="Aacute" unicode="&#xc1;" horiz-adv-x="737" 
d="M274 83l-18 -83h-256l231 667h268l238 -667h-257l-22 83h-184zM385 369q-5 20 -8 38.5t-5 36.5h-9q-1 -21 -3.5 -39t-7.5 -36l-33 -128h97l-31 128v0zM335 925l117 -73l-146 -128l-87 55z" />
    <glyph glyph-name="Acircumflex" unicode="&#xc2;" horiz-adv-x="737" 
d="M274 83l-18 -83h-256l231 667h268l238 -667h-257l-22 83h-184zM385 369q-5 20 -8 38.5t-5 36.5h-9q-1 -21 -3.5 -39t-7.5 -36l-33 -128h97l-31 128v0zM222 726l-47 89l195 101l191 -103l-46 -89l-145 65z" />
    <glyph glyph-name="Atilde" unicode="&#xc3;" horiz-adv-x="737" 
d="M274 83l-18 -83h-256l231 667h268l238 -667h-257l-22 83h-184zM385 369q-5 20 -8 38.5t-5 36.5h-9q-1 -21 -3.5 -39t-7.5 -36l-33 -128h97l-31 128v0zM327 755q-8 3 -16.5 6.5t-18.5 3.5q-15 0 -24 -9q-5 -5 -11.5 -14.5t-10.5 -17.5l-82 52q20 32 40.5 49t25.5 20
q18 12 35 17t37 5q17 0 28.5 -3.5t25.5 -10.5l23 -12q11 -5 20 -9.5t20 -4.5q6 0 11.5 1.5t10.5 6.5q3 2 10 10t9 12l7 11l89 -44q-8 -14 -18.5 -28.5t-22.5 -27.5q-20 -20 -41.5 -31t-50.5 -11q-17 0 -28.5 3.5t-24.5 8.5z" />
    <glyph glyph-name="Adieresis" unicode="&#xc4;" horiz-adv-x="737" 
d="M274 83l-18 -83h-256l231 667h268l238 -667h-257l-22 83h-184zM385 369q-5 20 -8 38.5t-5 36.5h-9q-1 -21 -3.5 -39t-7.5 -36l-33 -128h97l-31 128v0zM162 811q0 19 7 35.5t19 28.5t28.5 19t35.5 7t35.5 -7t29 -19t19.5 -28.5t7 -35.5q0 -38 -26.5 -64.5t-64.5 -26.5
t-64 26.5t-26 64.5zM389 811q0 19 7 35.5t19 28.5t28.5 19t35.5 7t35.5 -7t29 -19t19.5 -28.5t7 -35.5q0 -38 -26.5 -64.5t-64.5 -26.5t-64 26.5t-26 64.5z" />
    <glyph glyph-name="Aring" unicode="&#xc5;" horiz-adv-x="737" 
d="M274 83l-18 -83h-256l231 667h268l238 -667h-257l-22 83h-184zM385 369q-5 20 -8 38.5t-5 36.5h-9q-1 -21 -3.5 -39t-7.5 -36l-33 -128h97l-31 128v0zM497 822q0 -24 -10.5 -44t-27.5 -33q-12 -9 -26.5 -14.5t-28.5 -8.5t-25.5 -3.5t-18.5 -0.5t-18.5 0.5t-25.5 3.5
t-28.5 8.5t-26.5 14.5q-17 13 -27.5 33t-10.5 44q0 25 11 44.5t27 31.5q12 9 26.5 14.5t28.5 8.5t25.5 3.5t18.5 0.5t18.5 -0.5t25.5 -3.5t28.5 -8.5t26.5 -14.5q16 -12 27 -31.5t11 -44.5zM360 857q-7 0 -17 -1.5t-18 -6.5q-15 -9 -15 -27q0 -19 15 -28q8 -5 18 -6.5
t17 -1.5q8 0 17.5 1.5t17.5 6.5q15 10 15 27q0 18 -15 28q-8 5 -17.5 6.5t-17.5 1.5z" />
    <glyph glyph-name="AE" unicode="&#xc6;" horiz-adv-x="947" 
d="M7 0l232 667h266h203l61 -183h-199l21 -62h200l61 -175h-197l22 -64h200l64 -183h-200h-255l-22 83h-182l-21 -83h-254zM383 388q-4 14 -6 27.5t-1 28.5h-7q-1 -17 -3.5 -34t-6.5 -33l-35 -136h99z" />
    <glyph glyph-name="Ccedilla" unicode="&#xc7;" horiz-adv-x="591" 
d="M548 12q-24 -9 -48.5 -14.5t-47.5 -8t-41.5 -3.5t-30.5 -1q-66 0 -131 23.5t-115 73.5q-48 47 -72.5 111t-24.5 135q0 78 27 142t73 111q18 18 42 36t55 32.5t69.5 23.5t85.5 9q38 0 78.5 -6t80.5 -20l7 -254q-11 10 -25.5 22t-32.5 21.5t-39 16t-44 6.5q-59 0 -97 -41
q-17 -19 -26 -44t-9 -51q0 -27 9.5 -52t29.5 -44q15 -14 39 -26t60 -12q25 0 46.5 6.5t39 16.5t29.5 21t20 19zM341 -268l-110 78l132 147l116 -82z" />
    <glyph glyph-name="Egrave" unicode="&#xc8;" horiz-adv-x="560" 
d="M67 0v667h450v-183h-208v-62h189v-175h-189v-64h214v-183h-456zM301 925l115 -146l-86 -55l-146 128z" />
    <glyph glyph-name="Eacute" unicode="&#xc9;" horiz-adv-x="560" 
d="M67 0v667h450v-183h-208v-62h189v-175h-189v-64h214v-183h-456zM270 925l117 -73l-146 -128l-87 55z" />
    <glyph glyph-name="Ecircumflex" unicode="&#xca;" horiz-adv-x="560" 
d="M67 0v667h450v-183h-208v-62h189v-175h-189v-64h214v-183h-456zM144 726l-47 89l195 101l191 -103l-46 -89l-145 65z" />
    <glyph glyph-name="Edieresis" unicode="&#xcb;" horiz-adv-x="560" 
d="M67 0v667h450v-183h-208v-62h189v-175h-189v-64h214v-183h-456zM68 811q0 19 7 35.5t19 28.5t28.5 19t35.5 7t35.5 -7t29 -19t19.5 -28.5t7 -35.5q0 -38 -26.5 -64.5t-64.5 -26.5t-64 26.5t-26 64.5zM295 811q0 19 7 35.5t19 28.5t28.5 19t35.5 7t35.5 -7t29 -19
t19.5 -28.5t7 -35.5q0 -38 -26.5 -64.5t-64.5 -26.5t-64 26.5t-26 64.5z" />
    <glyph glyph-name="Igrave" unicode="&#xcc;" horiz-adv-x="376" 
d="M67 0v667h242v-667h-242zM190 925l115 -146l-86 -55l-146 128z" />
    <glyph glyph-name="Iacute" unicode="&#xcd;" horiz-adv-x="376" 
d="M67 0v667h242v-667h-242zM189 925l117 -73l-146 -128l-87 55z" />
    <glyph glyph-name="Icircumflex" unicode="&#xce;" horiz-adv-x="376" 
d="M67 0v667h242v-667h-242zM43 726l-47 89l195 101l191 -103l-46 -89l-145 65z" />
    <glyph glyph-name="Idieresis" unicode="&#xcf;" horiz-adv-x="376" 
d="M67 0v667h242v-667h-242zM-40 811q0 19 7 35.5t19 28.5t28.5 19t35.5 7t35.5 -7t29 -19t19.5 -28.5t7 -35.5q0 -38 -26.5 -64.5t-64.5 -26.5t-64 26.5t-26 64.5zM187 811q0 19 7 35.5t19 28.5t28.5 19t35.5 7t35.5 -7t29 -19t19.5 -28.5t7 -35.5q0 -38 -26.5 -64.5
t-64.5 -26.5t-64 26.5t-26 64.5z" />
    <glyph glyph-name="Eth" unicode="&#xd0;" horiz-adv-x="773" 
d="M95 0v272h-75v132h75v263h257q27 0 63.5 -3t76.5 -13t80 -30.5t75 -54.5q16 -17 32.5 -39t29 -51.5t20.5 -66.5t8 -82q0 -27 -3.5 -56.5t-12.5 -59.5t-26 -60t-44 -57q-15 -15 -37 -32t-52 -30.5t-67.5 -22.5t-82.5 -9h-317zM325 404h94v-132h-94v-74h28q19 0 49 5t54 26
q13 12 21 26.5t12 28.5t5 26.5t1 20.5q0 43 -12.5 68t-26.5 38q-22 20 -48 26t-47 6h-36v-65z" />
    <glyph glyph-name="Ntilde" unicode="&#xd1;" horiz-adv-x="801" 
d="M67 0v667h231l155 -252q9 -15 17 -28t15.5 -26.5t15 -29t15.5 -34.5h7q-8 32 -14.5 76.5t-6.5 81.5v212h232v-667h-232l-166 263q-11 18 -23.5 42t-22.5 45h-7q3 -14 5.5 -30.5t4.5 -33.5t3.5 -32.5t1.5 -26.5v-227h-231zM357 755q-8 3 -16.5 6.5t-18.5 3.5q-15 0 -24 -9
q-5 -5 -11.5 -14.5t-10.5 -17.5l-82 52q20 32 40.5 49t25.5 20q18 12 35 17t37 5q17 0 28.5 -3.5t25.5 -10.5l23 -12q11 -5 20 -9.5t20 -4.5q6 0 11.5 1.5t10.5 6.5q3 2 10 10t9 12l7 11l89 -44q-8 -14 -18.5 -28.5t-22.5 -27.5q-20 -20 -41.5 -31t-50.5 -11
q-17 0 -28.5 3.5t-24.5 8.5z" />
    <glyph glyph-name="Ograve" unicode="&#xd2;" horiz-adv-x="814" 
d="M777 334q0 -81 -27 -141.5t-66 -100.5q-43 -44 -112.5 -75.5t-164.5 -31.5t-164.5 31.5t-112.5 75.5q-39 40 -66 100.5t-27 141.5q0 80 27 140.5t66 100.5q21 22 49.5 41.5t63 34t75.5 23t89 8.5t89 -8.5t75.5 -23t63 -34t49.5 -41.5q39 -40 66 -100.5t27 -140.5z
M407 467q-32 0 -53.5 -10.5t-33.5 -23.5q-18 -19 -28 -46t-10 -54q0 -29 10 -55t28 -44q15 -15 37 -24.5t50 -9.5t50 9.5t37 24.5q17 17 27.5 42t10.5 57q0 64 -38 100q-14 14 -35.5 24t-51.5 10zM371 925l115 -146l-86 -55l-146 128z" />
    <glyph glyph-name="Oacute" unicode="&#xd3;" horiz-adv-x="814" 
d="M777 334q0 -81 -27 -141.5t-66 -100.5q-43 -44 -112.5 -75.5t-164.5 -31.5t-164.5 31.5t-112.5 75.5q-39 40 -66 100.5t-27 141.5q0 80 27 140.5t66 100.5q21 22 49.5 41.5t63 34t75.5 23t89 8.5t89 -8.5t75.5 -23t63 -34t49.5 -41.5q39 -40 66 -100.5t27 -140.5z
M407 467q-32 0 -53.5 -10.5t-33.5 -23.5q-18 -19 -28 -46t-10 -54q0 -29 10 -55t28 -44q15 -15 37 -24.5t50 -9.5t50 9.5t37 24.5q17 17 27.5 42t10.5 57q0 64 -38 100q-14 14 -35.5 24t-51.5 10zM450 925l117 -73l-146 -128l-87 55z" />
    <glyph glyph-name="Ocircumflex" unicode="&#xd4;" horiz-adv-x="814" 
d="M777 334q0 -81 -27 -141.5t-66 -100.5q-43 -44 -112.5 -75.5t-164.5 -31.5t-164.5 31.5t-112.5 75.5q-39 40 -66 100.5t-27 141.5q0 80 27 140.5t66 100.5q21 22 49.5 41.5t63 34t75.5 23t89 8.5t89 -8.5t75.5 -23t63 -34t49.5 -41.5q39 -40 66 -100.5t27 -140.5z
M407 467q-32 0 -53.5 -10.5t-33.5 -23.5q-18 -19 -28 -46t-10 -54q0 -29 10 -55t28 -44q15 -15 37 -24.5t50 -9.5t50 9.5t37 24.5q17 17 27.5 42t10.5 57q0 64 -38 100q-14 14 -35.5 24t-51.5 10zM264 726l-47 89l195 101l191 -103l-46 -89l-145 65z" />
    <glyph glyph-name="Otilde" unicode="&#xd5;" horiz-adv-x="814" 
d="M777 334q0 -81 -27 -141.5t-66 -100.5q-43 -44 -112.5 -75.5t-164.5 -31.5t-164.5 31.5t-112.5 75.5q-39 40 -66 100.5t-27 141.5q0 80 27 140.5t66 100.5q21 22 49.5 41.5t63 34t75.5 23t89 8.5t89 -8.5t75.5 -23t63 -34t49.5 -41.5q39 -40 66 -100.5t27 -140.5z
M407 467q-32 0 -53.5 -10.5t-33.5 -23.5q-18 -19 -28 -46t-10 -54q0 -29 10 -55t28 -44q15 -15 37 -24.5t50 -9.5t50 9.5t37 24.5q17 17 27.5 42t10.5 57q0 64 -38 100q-14 14 -35.5 24t-51.5 10zM377 755q-8 3 -16.5 6.5t-18.5 3.5q-15 0 -24 -9q-5 -5 -11.5 -14.5
t-10.5 -17.5l-82 52q20 32 40.5 49t25.5 20q18 12 35 17t37 5q17 0 28.5 -3.5t25.5 -10.5l23 -12q11 -5 20 -9.5t20 -4.5q6 0 11.5 1.5t10.5 6.5q3 2 10 10t9 12l7 11l89 -44q-8 -14 -18.5 -28.5t-22.5 -27.5q-20 -20 -41.5 -31t-50.5 -11q-17 0 -28.5 3.5t-24.5 8.5z" />
    <glyph glyph-name="Odieresis" unicode="&#xd6;" horiz-adv-x="814" 
d="M777 334q0 -81 -27 -141.5t-66 -100.5q-43 -44 -112.5 -75.5t-164.5 -31.5t-164.5 31.5t-112.5 75.5q-39 40 -66 100.5t-27 141.5q0 80 27 140.5t66 100.5q21 22 49.5 41.5t63 34t75.5 23t89 8.5t89 -8.5t75.5 -23t63 -34t49.5 -41.5q39 -40 66 -100.5t27 -140.5z
M407 467q-32 0 -53.5 -10.5t-33.5 -23.5q-18 -19 -28 -46t-10 -54q0 -29 10 -55t28 -44q15 -15 37 -24.5t50 -9.5t50 9.5t37 24.5q17 17 27.5 42t10.5 57q0 64 -38 100q-14 14 -35.5 24t-51.5 10zM206 811q0 19 7 35.5t19 28.5t28.5 19t35.5 7t35.5 -7t29 -19t19.5 -28.5
t7 -35.5q0 -38 -26.5 -64.5t-64.5 -26.5t-64 26.5t-26 64.5zM433 811q0 19 7 35.5t19 28.5t28.5 19t35.5 7t35.5 -7t29 -19t19.5 -28.5t7 -35.5q0 -38 -26.5 -64.5t-64.5 -26.5t-64 26.5t-26 64.5z" />
    <glyph glyph-name="multiply" unicode="&#xd7;" 
d="M34 209l128 127l-129 129l92 92l129 -129l127 128l85 -85l-128 -127l129 -129l-92 -92l-129 129l-127 -128z" />
    <glyph glyph-name="Oslash" unicode="&#xd8;" horiz-adv-x="851" 
d="M729 540q32 -43 49 -92t17 -114q0 -84 -28.5 -144.5t-64.5 -97.5q-43 -45 -112 -76t-165 -31q-60 0 -107.5 12t-91.5 36l-95 -94l-103 95l94 90q-31 41 -49 90t-18 118q0 83 27 142t66 101q20 21 46.5 40.5t60.5 34.5t76.5 23.5t93.5 8.5q58 0 107 -12.5t96 -37.5l95 94
l100 -95zM425 467q-32 0 -53.5 -10.5t-33.5 -23.5q-18 -19 -28 -46t-10 -54q0 -29 10 -55t28 -44q15 -15 37 -24.5t50 -9.5t50 9.5t37 24.5q17 17 27.5 42t10.5 57q0 64 -38 100q-14 14 -35.5 24t-51.5 10z" />
    <glyph glyph-name="Ugrave" unicode="&#xd9;" horiz-adv-x="751" 
d="M67 667h240v-387q0 -15 3.5 -34t17.5 -34q10 -11 22 -14.5t26 -3.5q19 0 30.5 4.5t18.5 11.5q14 14 16 35.5t2 34.5v387h241v-409q0 -20 -2.5 -43t-10 -48t-21.5 -50.5t-36 -48.5q-26 -26 -55.5 -42.5t-61 -25.5t-62.5 -12t-59 -3q-23 0 -54 2t-64.5 11t-67.5 26.5
t-62 48.5q-39 42 -50 86.5t-11 81.5v426zM351 925l115 -146l-86 -55l-146 128z" />
    <glyph glyph-name="Uacute" unicode="&#xda;" horiz-adv-x="751" 
d="M67 667h240v-387q0 -15 3.5 -34t17.5 -34q10 -11 22 -14.5t26 -3.5q19 0 30.5 4.5t18.5 11.5q14 14 16 35.5t2 34.5v387h241v-409q0 -20 -2.5 -43t-10 -48t-21.5 -50.5t-36 -48.5q-26 -26 -55.5 -42.5t-61 -25.5t-62.5 -12t-59 -3q-23 0 -54 2t-64.5 11t-67.5 26.5
t-62 48.5q-39 42 -50 86.5t-11 81.5v426zM400 925l117 -73l-146 -128l-87 55z" />
    <glyph glyph-name="Ucircumflex" unicode="&#xdb;" horiz-adv-x="751" 
d="M67 667h240v-387q0 -15 3.5 -34t17.5 -34q10 -11 22 -14.5t26 -3.5q19 0 30.5 4.5t18.5 11.5q14 14 16 35.5t2 34.5v387h241v-409q0 -20 -2.5 -43t-10 -48t-21.5 -50.5t-36 -48.5q-26 -26 -55.5 -42.5t-61 -25.5t-62.5 -12t-59 -3q-23 0 -54 2t-64.5 11t-67.5 26.5
t-62 48.5q-39 42 -50 86.5t-11 81.5v426zM234 726l-47 89l195 101l191 -103l-46 -89l-145 65z" />
    <glyph glyph-name="Udieresis" unicode="&#xdc;" horiz-adv-x="751" 
d="M67 667h240v-387q0 -15 3.5 -34t17.5 -34q10 -11 22 -14.5t26 -3.5q19 0 30.5 4.5t18.5 11.5q14 14 16 35.5t2 34.5v387h241v-409q0 -20 -2.5 -43t-10 -48t-21.5 -50.5t-36 -48.5q-26 -26 -55.5 -42.5t-61 -25.5t-62.5 -12t-59 -3q-23 0 -54 2t-64.5 11t-67.5 26.5
t-62 48.5q-39 42 -50 86.5t-11 81.5v426zM176 811q0 19 7 35.5t19 28.5t28.5 19t35.5 7t35.5 -7t29 -19t19.5 -28.5t7 -35.5q0 -38 -26.5 -64.5t-64.5 -26.5t-64 26.5t-26 64.5zM403 811q0 19 7 35.5t19 28.5t28.5 19t35.5 7t35.5 -7t29 -19t19.5 -28.5t7 -35.5
q0 -38 -26.5 -64.5t-64.5 -26.5t-64 26.5t-26 64.5z" />
    <glyph glyph-name="Yacute" unicode="&#xdd;" horiz-adv-x="685" 
d="M-7 667h274l57 -122q3 -7 8 -20.5t10 -32.5h7q4 21 8.5 31.5t9.5 21.5l52 122h273l-228 -380v-287h-239v287zM390 925l117 -73l-146 -128l-87 55z" />
    <glyph glyph-name="Thorn" unicode="&#xde;" horiz-adv-x="667" 
d="M67 0v667h236v-75h84q53 0 102 -10.5t93 -52.5q24 -23 46 -65.5t22 -109.5q0 -66 -21 -107.5t-45 -63.5q-20 -19 -42.5 -30t-46 -17t-46 -8t-43.5 -2h-103v-126h-236zM303 294h41q9 0 25 2.5t29 15.5q7 6 11.5 16t4.5 25q0 16 -5.5 26t-12.5 15q-8 7 -21.5 11t-27.5 4
h-44v-115z" />
    <glyph glyph-name="germandbls" unicode="&#xdf;" horiz-adv-x="643" 
d="M48 0v477q0 25 2 54t11 58.5t27.5 56.5t51.5 49q41 27 87.5 36t89.5 9q49 0 96 -11t89 -46q34 -29 48 -63t14 -72q0 -23 -5 -44.5t-17 -41.5q-9 -14 -21.5 -26.5t-29.5 -21.5q29 -11 48 -26t30 -29q21 -26 33.5 -64t12.5 -79q0 -48 -16 -86.5t-42 -64.5
q-23 -23 -49 -35.5t-54 -19.5t-56 -8.5t-54 -1.5h-16v130q8 0 17 3.5t17 11.5q16 16 19.5 39t3.5 39q0 43 -6.5 61t-12.5 25t-16 11.5t-22 4.5v129q13 -1 23.5 3.5t17.5 11.5q12 13 12 32q0 20 -14 32q-8 7 -18 10t-20 3q-11 0 -21 -3.5t-17 -11.5q-11 -12 -13.5 -29.5
t-2.5 -33.5v-468h-227z" />
    <glyph glyph-name="agrave" unicode="&#xe0;" horiz-adv-x="639" 
d="M374 414q-5 14 -6.5 24t-1.5 16v13h225v-467h-224l1 16q1 10 3.5 22t5.5 21h-7q-20 -25 -40 -39t-39 -21.5t-34.5 -9.5t-26.5 -2q-35 0 -68.5 12t-63.5 43t-50 78t-20 111q0 63 20 111.5t53 81.5q26 26 59.5 41t78.5 15q11 0 26 -2t32 -9t35.5 -20.5t36.5 -37.5zM254 234
q0 -17 6 -29t14 -20q16 -16 39 -16t39 15q10 10 16 23t6 29q0 17 -6 29t-14 20q-17 15 -39 15q-25 0 -41 -16q-8 -8 -14 -20.5t-6 -29.5zM351 742l115 -146l-86 -55l-146 128z" />
    <glyph glyph-name="aacute" unicode="&#xe1;" horiz-adv-x="639" 
d="M374 414q-5 14 -6.5 24t-1.5 16v13h225v-467h-224l1 16q1 10 3.5 22t5.5 21h-7q-20 -25 -40 -39t-39 -21.5t-34.5 -9.5t-26.5 -2q-35 0 -68.5 12t-63.5 43t-50 78t-20 111q0 63 20 111.5t53 81.5q26 26 59.5 41t78.5 15q11 0 26 -2t32 -9t35.5 -20.5t36.5 -37.5zM254 234
q0 -17 6 -29t14 -20q16 -16 39 -16t39 15q10 10 16 23t6 29q0 17 -6 29t-14 20q-17 15 -39 15q-25 0 -41 -16q-8 -8 -14 -20.5t-6 -29.5zM315 742l117 -73l-146 -128l-87 55z" />
    <glyph glyph-name="acircumflex" unicode="&#xe2;" horiz-adv-x="639" 
d="M374 414q-5 14 -6.5 24t-1.5 16v13h225v-467h-224l1 16q1 10 3.5 22t5.5 21h-7q-20 -25 -40 -39t-39 -21.5t-34.5 -9.5t-26.5 -2q-35 0 -68.5 12t-63.5 43t-50 78t-20 111q0 63 20 111.5t53 81.5q26 26 59.5 41t78.5 15q11 0 26 -2t32 -9t35.5 -20.5t36.5 -37.5zM254 234
q0 -17 6 -29t14 -20q16 -16 39 -16t39 15q10 10 16 23t6 29q0 17 -6 29t-14 20q-17 15 -39 15q-25 0 -41 -16q-8 -8 -14 -20.5t-6 -29.5zM184 543l-47 89l195 101l191 -103l-46 -89l-145 65z" />
    <glyph glyph-name="atilde" unicode="&#xe3;" horiz-adv-x="639" 
d="M374 414q-5 14 -6.5 24t-1.5 16v13h225v-467h-224l1 16q1 10 3.5 22t5.5 21h-7q-20 -25 -40 -39t-39 -21.5t-34.5 -9.5t-26.5 -2q-35 0 -68.5 12t-63.5 43t-50 78t-20 111q0 63 20 111.5t53 81.5q26 26 59.5 41t78.5 15q11 0 26 -2t32 -9t35.5 -20.5t36.5 -37.5zM254 234
q0 -17 6 -29t14 -20q16 -16 39 -16t39 15q10 10 16 23t6 29q0 17 -6 29t-14 20q-17 15 -39 15q-25 0 -41 -16q-8 -8 -14 -20.5t-6 -29.5zM291 572q-8 3 -16.5 6.5t-18.5 3.5q-15 0 -24 -9q-5 -5 -11.5 -14.5t-10.5 -17.5l-82 52q11 17 28.5 37t35.5 32q17 12 35 17t37 5
q29 0 56 -14l23 -12q11 -5 20 -9.5t20 -4.5q6 0 11.5 1.5t10.5 6.5q3 2 10 10t9 12l7 11l89 -44q-8 -14 -18.5 -28.5t-22.5 -27.5q-20 -20 -41.5 -31t-50.5 -11q-16 0 -28.5 3.5t-24.5 8.5z" />
    <glyph glyph-name="adieresis" unicode="&#xe4;" horiz-adv-x="639" 
d="M374 414q-5 14 -6.5 24t-1.5 16v13h225v-467h-224l1 16q1 10 3.5 22t5.5 21h-7q-20 -25 -40 -39t-39 -21.5t-34.5 -9.5t-26.5 -2q-35 0 -68.5 12t-63.5 43t-50 78t-20 111q0 63 20 111.5t53 81.5q26 26 59.5 41t78.5 15q11 0 26 -2t32 -9t35.5 -20.5t36.5 -37.5zM254 234
q0 -17 6 -29t14 -20q16 -16 39 -16t39 15q10 10 16 23t6 29q0 17 -6 29t-14 20q-17 15 -39 15q-25 0 -41 -16q-8 -8 -14 -20.5t-6 -29.5zM131 622q0 38 26 64.5t64 26.5t64.5 -26.5t26.5 -64.5t-26.5 -64.5t-64.5 -26.5t-64 26.5t-26 64.5zM348 622q0 38 26 64.5t64 26.5
t64.5 -26.5t26.5 -64.5t-26.5 -64.5t-64.5 -26.5t-64 26.5t-26 64.5z" />
    <glyph glyph-name="aring" unicode="&#xe5;" horiz-adv-x="639" 
d="M374 414q-5 14 -6.5 24t-1.5 16v13h225v-467h-224l1 16q1 10 3.5 22t5.5 21h-7q-20 -25 -40 -39t-39 -21.5t-34.5 -9.5t-26.5 -2q-35 0 -68.5 12t-63.5 43t-50 78t-20 111q0 63 20 111.5t53 81.5q26 26 59.5 41t78.5 15q11 0 26 -2t32 -9t35.5 -20.5t36.5 -37.5zM254 234
q0 -17 6 -29t14 -20q16 -16 39 -16t39 15q10 10 16 23t6 29q0 17 -6 29t-14 20q-17 15 -39 15q-25 0 -41 -16q-8 -8 -14 -20.5t-6 -29.5zM461 645q0 -24 -10.5 -44t-27.5 -33q-12 -9 -26.5 -14.5t-28.5 -8.5t-25.5 -3.5t-18.5 -0.5t-18.5 0.5t-25.5 3.5t-28.5 8.5
t-26.5 14.5q-17 13 -27.5 33t-10.5 44q0 25 11 44.5t27 31.5q12 9 26.5 14.5t28.5 8.5t25.5 3.5t18.5 0.5t18.5 -0.5t25.5 -3.5t28.5 -8.5t26.5 -14.5q16 -12 27 -31.5t11 -44.5zM324 680q-7 0 -17 -1.5t-18 -6.5q-15 -9 -15 -27q0 -19 15 -28q8 -5 18 -6.5t17 -1.5
q8 0 17.5 1.5t17.5 6.5q15 10 15 27q0 18 -15 28q-8 5 -17.5 6.5t-17.5 1.5z" />
    <glyph glyph-name="ae" unicode="&#xe6;" horiz-adv-x="1004" 
d="M965 157q-14 -46 -40.5 -76.5t-65.5 -53.5q-38 -22 -77 -31t-83 -9q-30 0 -66.5 5.5t-64.5 16.5q-33 12 -54.5 28.5t-33.5 29.5q-23 -19 -45.5 -32t-46.5 -23q-37 -15 -70.5 -20t-68.5 -5q-68 0 -111 18.5t-69 44.5q-18 19 -29.5 44.5t-11.5 58.5q0 37 13 62t27 39
q18 19 40.5 30.5t45.5 17.5t45 7.5t40 1.5q29 0 62 -4t76 -18q1 19 -5.5 35.5t-15.5 25.5t-21.5 14t-26 8t-25.5 3.5t-19 0.5q-27 0 -80 -7.5t-137 -37.5v113q49 14 110.5 25t118.5 11q23 0 57.5 -3t65.5 -17q24 -10 44.5 -26t36.5 -36q15 14 35 28.5t46 26.5q32 15 63 21
t67 6q78 0 130.5 -23t85.5 -58q45 -47 57 -97.5t12 -94.5v-8h-332v-6q0 -13 3.5 -31.5t13.5 -28.5q5 -5 14.5 -9t23.5 -4q8 0 15.5 1.5t14.5 8.5q10 10 13 27h223zM754 296q-1 11 -6 24.5t-14 21.5q-7 6 -16 10t-19 4q-22 0 -34 -12q-9 -8 -14 -22t-5 -26h108zM323 201
q-16 0 -34.5 -2.5t-32.5 -12.5q-19 -13 -19 -33q0 -15 6.5 -23.5t17.5 -13.5q14 -7 32 -8.5t29 -1.5q19 0 38 3t37 12q19 9 24.5 19t5.5 17q0 8 -6 17.5t-28 16.5q-14 5 -33 7.5t-37 2.5z" />
    <glyph glyph-name="ccedilla" unicode="&#xe7;" horiz-adv-x="444" 
d="M407 11q-20 -10 -47 -17t-68 -7q-39 0 -70 6.5t-55 16t-42 22t-30 24.5q-28 27 -47.5 69.5t-19.5 101.5q0 60 20 107t52 79q41 41 88 54t93 13q29 0 62.5 -5t69.5 -19v-190q-29 26 -51 31.5t-34 5.5q-13 0 -26 -3.5t-24 -14.5q-19 -21 -19 -49q0 -30 19 -49
q20 -20 48 -20q24 0 48 10t42 27zM231 -250l-100 70l120 135l106 -76z" />
    <glyph glyph-name="egrave" unicode="&#xe8;" horiz-adv-x="613" 
d="M254 196q-1 -17 3 -37t14 -31q4 -5 12 -9t22 -4q11 0 19.5 4t14.5 9q5 5 9 12t6 15h222q-8 -26 -20 -44.5t-27 -35.5q-18 -20 -38 -36t-45.5 -27.5t-57.5 -18t-73 -6.5q-27 0 -56 3t-57.5 11.5t-56 23.5t-51.5 39q-11 11 -22.5 26.5t-21.5 35.5t-16 45.5t-6 55.5
q0 50 18 96t52 80q33 32 85 54.5t123 22.5q67 0 116.5 -20t84.5 -54q38 -36 58 -85.5t20 -98.5v-26h-331zM363 293q-1 12 -6 25.5t-14 21.5q-13 13 -36 13q-19 0 -33 -12q-8 -8 -13 -22t-5 -26h107zM331 742l115 -146l-86 -55l-146 128z" />
    <glyph glyph-name="eacute" unicode="&#xe9;" horiz-adv-x="613" 
d="M254 196q-1 -17 3 -37t14 -31q4 -5 12 -9t22 -4q11 0 19.5 4t14.5 9q5 5 9 12t6 15h222q-8 -26 -20 -44.5t-27 -35.5q-18 -20 -38 -36t-45.5 -27.5t-57.5 -18t-73 -6.5q-27 0 -56 3t-57.5 11.5t-56 23.5t-51.5 39q-11 11 -22.5 26.5t-21.5 35.5t-16 45.5t-6 55.5
q0 50 18 96t52 80q33 32 85 54.5t123 22.5q67 0 116.5 -20t84.5 -54q38 -36 58 -85.5t20 -98.5v-26h-331zM363 293q-1 12 -6 25.5t-14 21.5q-13 13 -36 13q-19 0 -33 -12q-8 -8 -13 -22t-5 -26h107zM294 742l117 -73l-146 -128l-87 55z" />
    <glyph glyph-name="ecircumflex" unicode="&#xea;" horiz-adv-x="613" 
d="M254 196q-1 -17 3 -37t14 -31q4 -5 12 -9t22 -4q11 0 19.5 4t14.5 9q5 5 9 12t6 15h222q-8 -26 -20 -44.5t-27 -35.5q-18 -20 -38 -36t-45.5 -27.5t-57.5 -18t-73 -6.5q-27 0 -56 3t-57.5 11.5t-56 23.5t-51.5 39q-11 11 -22.5 26.5t-21.5 35.5t-16 45.5t-6 55.5
q0 50 18 96t52 80q33 32 85 54.5t123 22.5q67 0 116.5 -20t84.5 -54q38 -36 58 -85.5t20 -98.5v-26h-331zM363 293q-1 12 -6 25.5t-14 21.5q-13 13 -36 13q-19 0 -33 -12q-8 -8 -13 -22t-5 -26h107zM156 543l-47 89l195 101l191 -103l-46 -89l-145 65z" />
    <glyph glyph-name="edieresis" unicode="&#xeb;" horiz-adv-x="613" 
d="M254 196q-1 -17 3 -37t14 -31q4 -5 12 -9t22 -4q11 0 19.5 4t14.5 9q5 5 9 12t6 15h222q-8 -26 -20 -44.5t-27 -35.5q-18 -20 -38 -36t-45.5 -27.5t-57.5 -18t-73 -6.5q-27 0 -56 3t-57.5 11.5t-56 23.5t-51.5 39q-11 11 -22.5 26.5t-21.5 35.5t-16 45.5t-6 55.5
q0 50 18 96t52 80q33 32 85 54.5t123 22.5q67 0 116.5 -20t84.5 -54q38 -36 58 -85.5t20 -98.5v-26h-331zM363 293q-1 12 -6 25.5t-14 21.5q-13 13 -36 13q-19 0 -33 -12q-8 -8 -13 -22t-5 -26h107zM93 622q0 38 26 64.5t64 26.5t64.5 -26.5t26.5 -64.5t-26.5 -64.5
t-64.5 -26.5t-64 26.5t-26 64.5zM310 622q0 38 26 64.5t64 26.5t64.5 -26.5t26.5 -64.5t-26.5 -64.5t-64.5 -26.5t-64 26.5t-26 64.5z" />
    <glyph glyph-name="igrave" unicode="&#xec;" horiz-adv-x="323" 
d="M48 0v467h227v-467h-227zM182 742l115 -146l-86 -55l-146 128z" />
    <glyph glyph-name="iacute" unicode="&#xed;" horiz-adv-x="323" 
d="M48 0v467h227v-467h-227zM151 742l117 -73l-146 -128l-87 55z" />
    <glyph glyph-name="icircumflex" unicode="&#xee;" horiz-adv-x="323" 
d="M48 0v467h227v-467h-227zM17 543l-47 89l195 101l191 -103l-46 -89l-145 65z" />
    <glyph glyph-name="idieresis" unicode="&#xef;" horiz-adv-x="323" 
d="M48 0v467h227v-467h-227zM-56 622q0 38 26 64.5t64 26.5t64.5 -26.5t26.5 -64.5t-26.5 -64.5t-64.5 -26.5t-64 26.5t-26 64.5zM161 622q0 38 26 64.5t64 26.5t64.5 -26.5t26.5 -64.5t-26.5 -64.5t-64.5 -26.5t-64 26.5t-26 64.5z" />
    <glyph glyph-name="eth" unicode="&#xf0;" horiz-adv-x="636" 
d="M136 745q48 -4 86.5 -12t69.5 -17.5t53.5 -19.5t38.5 -18l143 63l36 -98l-91 -38q33 -26 59.5 -60t46.5 -83q11 -26 20.5 -68.5t9.5 -99.5q0 -45 -7.5 -81.5t-19 -64.5t-25.5 -48.5t-28 -34.5q-24 -25 -50.5 -40.5t-54 -23.5t-55 -11t-52.5 -3q-44 0 -78.5 6.5
t-61.5 16.5t-47 23t-33 26q-32 30 -50 74.5t-18 94.5q0 51 18.5 89t43.5 64q27 27 73.5 49.5t120.5 22.5q39 0 74 -8.5t72 -31.5q-10 40 -32.5 73t-64.5 56l-188 -83l-36 99l118 51q-54 20 -107 25zM312 300q-17 0 -28 -5.5t-16 -10.5q-8 -8 -14 -20t-6 -30q0 -19 6 -31
t14 -20q5 -5 16 -10.5t28 -5.5t28 5.5t16 10.5q8 8 14 20t6 31q0 18 -6 30t-14 20q-5 5 -16 10.5t-28 5.5z" />
    <glyph glyph-name="ntilde" unicode="&#xf1;" horiz-adv-x="629" 
d="M48 0v467h223v-24q0 -12 -2.5 -24.5t-6.5 -23.5l5 -1q14 17 31.5 34t31.5 27q38 25 85 25q41 0 69 -13t45 -29q17 -17 27.5 -35.5t16 -36.5t7 -35.5t1.5 -30.5v-300h-227v254q0 17 -4 25.5t-6 10.5q-6 7 -13 8.5t-13 1.5q-18 0 -29 -11q-10 -10 -12 -22.5t-2 -23.5v-243
h-227zM281 572q-8 3 -16.5 6.5t-18.5 3.5q-15 0 -24 -9q-5 -5 -11.5 -14.5t-10.5 -17.5l-82 52q11 17 28.5 37t35.5 32q17 12 35 17t37 5q29 0 56 -14l23 -12q11 -5 20 -9.5t20 -4.5q6 0 11.5 1.5t10.5 6.5q3 2 10 10t9 12l7 11l89 -44q-8 -14 -18.5 -28.5t-22.5 -27.5
q-20 -20 -41.5 -31t-50.5 -11q-16 0 -28.5 3.5t-24.5 8.5z" />
    <glyph glyph-name="ograve" unicode="&#xf2;" horiz-adv-x="626" 
d="M598 234q0 -51 -19 -94.5t-48 -73.5q-14 -15 -34 -29t-47 -25t-61 -18t-76 -7t-76 7t-61 18t-47 25t-34 29q-29 30 -48 73.5t-19 94.5q0 43 16.5 87.5t50.5 79.5q14 15 34 29t47 25t61 18t76 7t76 -7t61 -18t47 -25t34 -29q34 -35 50.5 -79.5t16.5 -87.5zM313 300
q-17 0 -28 -5.5t-16 -10.5q-8 -8 -14 -20t-6 -30q0 -19 6 -31t14 -20q5 -5 16 -10.5t28 -5.5t28 5.5t16 10.5q8 8 14 20t6 31q0 18 -6 30t-14 20q-5 5 -16 10.5t-28 5.5zM331 742l115 -146l-86 -55l-146 128z" />
    <glyph glyph-name="oacute" unicode="&#xf3;" horiz-adv-x="626" 
d="M598 234q0 -51 -19 -94.5t-48 -73.5q-14 -15 -34 -29t-47 -25t-61 -18t-76 -7t-76 7t-61 18t-47 25t-34 29q-29 30 -48 73.5t-19 94.5q0 43 16.5 87.5t50.5 79.5q14 15 34 29t47 25t61 18t76 7t76 -7t61 -18t47 -25t34 -29q34 -35 50.5 -79.5t16.5 -87.5zM313 300
q-17 0 -28 -5.5t-16 -10.5q-8 -8 -14 -20t-6 -30q0 -19 6 -31t14 -20q5 -5 16 -10.5t28 -5.5t28 5.5t16 10.5q8 8 14 20t6 31q0 18 -6 30t-14 20q-5 5 -16 10.5t-28 5.5zM295 742l117 -73l-146 -128l-87 55z" />
    <glyph glyph-name="ocircumflex" unicode="&#xf4;" horiz-adv-x="626" 
d="M598 234q0 -51 -19 -94.5t-48 -73.5q-14 -15 -34 -29t-47 -25t-61 -18t-76 -7t-76 7t-61 18t-47 25t-34 29q-29 30 -48 73.5t-19 94.5q0 43 16.5 87.5t50.5 79.5q14 15 34 29t47 25t61 18t76 7t76 -7t61 -18t47 -25t34 -29q34 -35 50.5 -79.5t16.5 -87.5zM313 300
q-17 0 -28 -5.5t-16 -10.5q-8 -8 -14 -20t-6 -30q0 -19 6 -31t14 -20q5 -5 16 -10.5t28 -5.5t28 5.5t16 10.5q8 8 14 20t6 31q0 18 -6 30t-14 20q-5 5 -16 10.5t-28 5.5zM167 543l-47 89l195 101l191 -103l-46 -89l-145 65z" />
    <glyph glyph-name="otilde" unicode="&#xf5;" horiz-adv-x="626" 
d="M598 234q0 -51 -19 -94.5t-48 -73.5q-14 -15 -34 -29t-47 -25t-61 -18t-76 -7t-76 7t-61 18t-47 25t-34 29q-29 30 -48 73.5t-19 94.5q0 43 16.5 87.5t50.5 79.5q14 15 34 29t47 25t61 18t76 7t76 -7t61 -18t47 -25t34 -29q34 -35 50.5 -79.5t16.5 -87.5zM313 300
q-17 0 -28 -5.5t-16 -10.5q-8 -8 -14 -20t-6 -30q0 -19 6 -31t14 -20q5 -5 16 -10.5t28 -5.5t28 5.5t16 10.5q8 8 14 20t6 31q0 18 -6 30t-14 20q-5 5 -16 10.5t-28 5.5zM280 572q-8 3 -16.5 6.5t-18.5 3.5q-15 0 -24 -9q-5 -5 -11.5 -14.5t-10.5 -17.5l-82 52
q11 17 28.5 37t35.5 32q17 12 35 17t37 5q29 0 56 -14l23 -12q11 -5 20 -9.5t20 -4.5q6 0 11.5 1.5t10.5 6.5q3 2 10 10t9 12l7 11l89 -44q-8 -14 -18.5 -28.5t-22.5 -27.5q-20 -20 -41.5 -31t-50.5 -11q-16 0 -28.5 3.5t-24.5 8.5z" />
    <glyph glyph-name="odieresis" unicode="&#xf6;" horiz-adv-x="626" 
d="M598 234q0 -51 -19 -94.5t-48 -73.5q-14 -15 -34 -29t-47 -25t-61 -18t-76 -7t-76 7t-61 18t-47 25t-34 29q-29 30 -48 73.5t-19 94.5q0 43 16.5 87.5t50.5 79.5q14 15 34 29t47 25t61 18t76 7t76 -7t61 -18t47 -25t34 -29q34 -35 50.5 -79.5t16.5 -87.5zM313 300
q-17 0 -28 -5.5t-16 -10.5q-8 -8 -14 -20t-6 -30q0 -19 6 -31t14 -20q5 -5 16 -10.5t28 -5.5t28 5.5t16 10.5q8 8 14 20t6 31q0 18 -6 30t-14 20q-5 5 -16 10.5t-28 5.5zM91 622q0 38 26 64.5t64 26.5t64.5 -26.5t26.5 -64.5t-26.5 -64.5t-64.5 -26.5t-64 26.5t-26 64.5z
M308 622q0 38 26 64.5t64 26.5t64.5 -26.5t26.5 -64.5t-26.5 -64.5t-64.5 -26.5t-64 26.5t-26 64.5z" />
    <glyph glyph-name="divide" unicode="&#xf7;" 
d="M33 400h434v-120h-434v120zM176 510q0 31 21.5 52.5t52.5 21.5t52.5 -21.5t21.5 -52.5t-21.5 -52.5t-52.5 -21.5t-52.5 21.5t-21.5 52.5zM176 170q0 31 21.5 52.5t52.5 21.5t52.5 -21.5t21.5 -52.5t-21.5 -52.5t-52.5 -21.5t-52.5 21.5t-21.5 52.5z" />
    <glyph glyph-name="oslash" unicode="&#xf8;" horiz-adv-x="655" 
d="M560 383q18 -22 35 -58.5t17 -90.5q0 -53 -19 -96t-48 -72q-24 -25 -52 -40.5t-57.5 -24t-58.5 -11.5t-55 -3q-38 0 -69.5 5.5t-63.5 19.5l-91 -91l-82 79l80 81q-35 45 -44.5 86t-9.5 67q0 43 16.5 87.5t50.5 79.5q35 36 89 57.5t129 21.5q43 0 76 -6.5t66 -20.5l88 91
l82 -80zM327 300q-17 0 -28 -5.5t-16 -10.5q-8 -8 -14 -20t-6 -30q0 -19 6 -31t14 -20q5 -5 16 -10.5t28 -5.5t28 5.5t16 10.5q8 8 14 20t6 31q0 18 -6 30t-14 20q-5 5 -16 10.5t-28 5.5z" />
    <glyph glyph-name="ugrave" unicode="&#xf9;" horiz-adv-x="628" 
d="M48 467h227v-253q0 -9 1.5 -19t9.5 -18q6 -7 13 -8.5t14 -1.5t14 1.5t14 8.5q8 8 10 17.5t2 19.5v253h227v-269q0 -26 -10 -61.5t-44 -71.5q-33 -35 -87 -56.5t-126 -21.5t-125 21.5t-85 53.5q-25 25 -40 57t-15 72v276zM321 742l115 -146l-86 -55l-146 128z" />
    <glyph glyph-name="uacute" unicode="&#xfa;" horiz-adv-x="628" 
d="M48 467h227v-253q0 -9 1.5 -19t9.5 -18q6 -7 13 -8.5t14 -1.5t14 1.5t14 8.5q8 8 10 17.5t2 19.5v253h227v-269q0 -26 -10 -61.5t-44 -71.5q-33 -35 -87 -56.5t-126 -21.5t-125 21.5t-85 53.5q-25 25 -40 57t-15 72v276zM285 742l117 -73l-146 -128l-87 55z" />
    <glyph glyph-name="ucircumflex" unicode="&#xfb;" horiz-adv-x="628" 
d="M48 467h227v-253q0 -9 1.5 -19t9.5 -18q6 -7 13 -8.5t14 -1.5t14 1.5t14 8.5q8 8 10 17.5t2 19.5v253h227v-269q0 -26 -10 -61.5t-44 -71.5q-33 -35 -87 -56.5t-126 -21.5t-125 21.5t-85 53.5q-25 25 -40 57t-15 72v276zM168 543l-47 89l195 101l191 -103l-46 -89
l-145 65z" />
    <glyph glyph-name="udieresis" unicode="&#xfc;" horiz-adv-x="628" 
d="M48 467h227v-253q0 -9 1.5 -19t9.5 -18q6 -7 13 -8.5t14 -1.5t14 1.5t14 8.5q8 8 10 17.5t2 19.5v253h227v-269q0 -26 -10 -61.5t-44 -71.5q-33 -35 -87 -56.5t-126 -21.5t-125 21.5t-85 53.5q-25 25 -40 57t-15 72v276zM96 622q0 38 26 64.5t64 26.5t64.5 -26.5
t26.5 -64.5t-26.5 -64.5t-64.5 -26.5t-64 26.5t-26 64.5zM313 622q0 38 26 64.5t64 26.5t64.5 -26.5t26.5 -64.5t-26.5 -64.5t-64.5 -26.5t-64 26.5t-26 64.5z" />
    <glyph glyph-name="yacute" unicode="&#xfd;" horiz-adv-x="601" 
d="M-10 467h245l56 -192q9 -30 10 -61h6q1 17 3.5 33.5t6.5 30.5l54 189h240l-317 -696h-241l138 276zM275 742l117 -73l-146 -128l-87 55z" />
    <glyph glyph-name="thorn" unicode="&#xfe;" horiz-adv-x="637" 
d="M48 -229v958h217v-288q0 -11 -1.5 -22t-4.5 -19l-1 -3l7 -2q10 17 22.5 31t25.5 24q16 11 39.5 20.5t55.5 9.5q41 0 75 -14.5t58 -38.5q35 -35 51.5 -86.5t16.5 -104.5q0 -37 -7 -67t-17.5 -53.5t-23.5 -41.5t-25 -31q-53 -56 -124 -56q-23 0 -46 6t-46 21
q-13 9 -25.5 21t-22.5 29h-7q7 -27 9 -47.5t2 -43.5v-202h-228zM265 231q0 -36 20 -56q8 -9 18 -12t21 -3q23 0 40 15q11 11 17 25.5t6 30.5q0 17 -6 31t-16 24q-6 6 -16.5 11.5t-25.5 5.5q-11 0 -20.5 -4t-16.5 -10q-11 -11 -16 -27.5t-5 -30.5z" />
    <glyph glyph-name="ydieresis" unicode="&#xff;" horiz-adv-x="601" 
d="M-10 467h245l56 -192q9 -30 10 -61h6q1 17 3.5 33.5t6.5 30.5l54 189h240l-317 -696h-241l138 276zM86 622q0 38 26 64.5t64 26.5t64.5 -26.5t26.5 -64.5t-26.5 -64.5t-64.5 -26.5t-64 26.5t-26 64.5zM303 622q0 38 26 64.5t64 26.5t64.5 -26.5t26.5 -64.5t-26.5 -64.5
t-64.5 -26.5t-64 26.5t-26 64.5z" />
    <glyph glyph-name="dotlessi" horiz-adv-x="323" 
d="M48 0v467h227v-467h-227z" />
    <glyph glyph-name="OE" unicode="&#x152;" horiz-adv-x="1039" 
d="M548 84q-17 -20 -39.5 -40t-41.5 -31q-25 -14 -58 -21t-62 -7q-53 0 -104.5 18.5t-99.5 66.5q-52 52 -79 120t-27 143q0 35 6.5 72t19.5 72t33 67.5t47 58.5q32 31 84 55t128 24q25 0 56.5 -6t60.5 -23q23 -14 42.5 -35t33.5 -44v93h447v-183h-206v-62h188v-175h-188v-64
h214v-183h-455v84zM289 329q0 -29 8.5 -51t21.5 -37q14 -16 36 -27.5t54 -11.5q27 0 48 8.5t35 22.5q16 15 27.5 41t11.5 64t-11 61t-25 36q-15 14 -36 22t-47 8q-30 0 -52.5 -11t-36.5 -27q-17 -18 -25.5 -43.5t-8.5 -54.5z" />
    <glyph glyph-name="oe" unicode="&#x153;" horiz-adv-x="933" 
d="M895 157q-5 -13 -12 -29t-19 -33.5t-28.5 -34t-40.5 -31.5q-28 -17 -68.5 -29.5t-96.5 -12.5q-63 0 -101.5 18.5t-64.5 45.5q-23 -21 -46.5 -33.5t-46.5 -19t-45.5 -9t-43.5 -2.5q-62 0 -108 19.5t-83 58.5q-25 27 -44 67t-19 97q0 55 21 100.5t53 76.5q38 36 89 55
t105 19q34 0 61 -7t48.5 -17t37 -21.5t25.5 -20.5q23 22 48.5 35.5t48.5 20.5t43 9t33 2q45 0 95 -16.5t88 -52.5q15 -14 29.5 -33t26 -44.5t18.5 -56.5t7 -67v-11h-331v-4q0 -14 2 -33t14 -31q8 -8 19 -11t22 -3q7 0 16 2t17 10q10 10 10 27h221zM684 297q0 12 -4.5 27
t-13.5 23q-12 12 -34 12q-14 0 -23 -4.5t-14 -9.5q-9 -9 -13 -22t-4 -26h106zM313 300q-17 0 -28 -5.5t-16 -10.5q-8 -8 -14 -20t-6 -30q0 -19 6 -31t14 -20q5 -5 16 -10.5t28 -5.5t28 5.5t16 10.5q8 8 14 20t6 31q0 18 -6 30t-14 20q-5 5 -16 10.5t-28 5.5z" />
    <glyph glyph-name="Ydieresis" unicode="&#x178;" horiz-adv-x="685" 
d="M-7 667h274l57 -122q3 -7 8 -20.5t10 -32.5h7q4 21 8.5 31.5t9.5 21.5l52 122h273l-228 -380v-287h-239v287zM146 811q0 19 7 35.5t19 28.5t28.5 19t35.5 7t35.5 -7t29 -19t19.5 -28.5t7 -35.5q0 -38 -26.5 -64.5t-64.5 -26.5t-64 26.5t-26 64.5zM373 811q0 19 7 35.5
t19 28.5t28.5 19t35.5 7t35.5 -7t29 -19t19.5 -28.5t7 -35.5q0 -38 -26.5 -64.5t-64.5 -26.5t-64 26.5t-26 64.5z" />
    <glyph glyph-name="florin" horiz-adv-x="707" 
d="M426 29q-2 -13 -6.5 -33t-12 -42.5t-19.5 -44.5t-30 -40q-21 -21 -46.5 -33t-53 -18.5t-54 -8.5t-48.5 -2q-20 0 -33.5 1t-30.5 5l27 169h12q13 0 32 1.5t33 12.5q15 11 20 26.5t8 30.5l47 268h-60l22 124h60l22 132q5 34 20 62.5t35 48.5q23 23 57.5 37.5t82.5 14.5
q22 0 51.5 -4t60.5 -18l-28 -167q-6 4 -16.5 8t-23.5 4q-22 0 -32 -12q-5 -5 -8.5 -14.5t-5.5 -17.5l-12 -74h69l-22 -124h-69z" />
    <glyph glyph-name="afii57929" unicode="&#x2bc;" 
d="M273 476h-137l55 191h173z" />
    <glyph glyph-name="circumflex" 
d="M104 543l-47 89l195 101l191 -103l-46 -89l-145 65z" />
    <glyph glyph-name="ring" 
d="M387 645q0 -24 -10.5 -44t-27.5 -33q-12 -9 -26.5 -14.5t-28.5 -8.5t-25.5 -3.5t-18.5 -0.5t-18.5 0.5t-25.5 3.5t-28.5 8.5t-26.5 14.5q-17 13 -27.5 33t-10.5 44q0 25 11 44.5t27 31.5q12 9 26.5 14.5t28.5 8.5t25.5 3.5t18.5 0.5t18.5 -0.5t25.5 -3.5t28.5 -8.5
t26.5 -14.5q16 -12 27 -31.5t11 -44.5zM250 680q-7 0 -17 -1.5t-18 -6.5q-15 -9 -15 -27q0 -19 15 -28q8 -5 18 -6.5t17 -1.5q8 0 17.5 1.5t17.5 6.5q15 10 15 27q0 18 -15 28q-8 5 -17.5 6.5t-17.5 1.5z" />
    <glyph glyph-name="tilde" unicode="&#x2dc;" 
d="M217 572q-8 3 -16.5 6.5t-18.5 3.5q-15 0 -24 -9q-5 -5 -11.5 -14.5t-10.5 -17.5l-82 52q11 17 28.5 37t35.5 32q17 12 35 17t37 5q29 0 56 -14l23 -12q11 -5 20 -9.5t20 -4.5q6 0 11.5 1.5t10.5 6.5q3 2 10 10t9 12l7 11l89 -44q-8 -14 -18.5 -28.5t-22.5 -27.5
q-20 -20 -41.5 -31t-50.5 -11q-16 0 -28.5 3.5t-24.5 8.5z" />
    <glyph glyph-name="endash" unicode="&#x2013;" horiz-adv-x="574" 
d="M70 340h434v-150h-434v150z" />
    <glyph glyph-name="emdash" unicode="&#x2014;" horiz-adv-x="933" 
d="M70 190v150h793v-150h-793z" />
    <glyph glyph-name="quoteleft" unicode="&#x2018;" horiz-adv-x="436" 
d="M204 667h178l-107 -330h-228z" />
    <glyph glyph-name="quoteright" unicode="&#x2019;" horiz-adv-x="436" 
d="M231 337h-178l107 330h229z" />
    <glyph glyph-name="quotedblleft" unicode="&#x201c;" horiz-adv-x="702" 
d="M471 667h178l-107 -330h-219zM194 667h178l-107 -330h-218z" />
    <glyph glyph-name="quotedblright" unicode="&#x201d;" horiz-adv-x="702" 
d="M231 337h-178l107 330h219zM508 337h-178l107 330h219z" />
    <glyph glyph-name="quotedblbase" unicode="&#x201e;" horiz-adv-x="702" 
d="M231 -160h-178l107 330h219zM508 -160h-178l107 330h219z" />
    <glyph glyph-name="bullet" unicode="&#x2022;" horiz-adv-x="1000" 
d="M637 340q0 -26 -10 -52.5t-30 -46.5t-46 -30.5t-51 -10.5t-51 10.5t-46 30.5t-30 46.5t-10 52.5t10 52.5t30 46.5t46 30.5t51 10.5t51 -10.5t46 -30.5t30 -46.5t10 -52.5z" />
    <glyph glyph-name="ellipsis" unicode="&#x2026;" horiz-adv-x="1102" 
d="M787 98q0 19 8 39t23 35q20 20 47.5 29t53.5 9t53 -9t47 -29q15 -15 23 -35t8 -39q0 -18 -8 -38t-23 -35q-20 -20 -47 -29t-53 -9t-53.5 9t-47.5 29q-15 15 -23 35t-8 38zM420 98q0 19 8 39t23 35q20 20 47.5 29t53.5 9t53 -9t47 -29q15 -15 23 -35t8 -39q0 -18 -8 -38
t-23 -35q-20 -20 -47 -29t-53 -9t-53.5 9t-47.5 29q-15 15 -23 35t-8 38zM52 98q0 19 8 39t23 35q20 20 47.5 29t53.5 9t53 -9t47 -29q15 -15 23 -35t8 -39q0 -18 -8 -38t-23 -35q-20 -20 -47 -29t-53 -9t-53.5 9t-47.5 29q-15 15 -23 35t-8 38z" />
    <glyph glyph-name="guilsinglleft" unicode="&#x2039;" horiz-adv-x="326" 
d="M184 5l-151 227l159 225l92 -64l-113 -161l105 -162z" />
    <glyph glyph-name="guilsinglright" unicode="&#x203a;" horiz-adv-x="326" 
d="M155 232l-113 161l92 64l159 -225l-151 -227l-92 65z" />
    <glyph glyph-name="Euro" unicode="&#x20ac;" horiz-adv-x="707" 
d="M633 32q-43 -26 -89.5 -36.5t-106.5 -10.5q-54 0 -110 10t-111 49q-38 27 -71 70.5t-51 102.5h-93l36 90h40v43h-76l36 90h57q12 47 39.5 92.5t81.5 84.5q30 22 60 35t58.5 19.5t56 8.5t54.5 2q46 0 99.5 -8.5t121.5 -41.5l-63 -159q-45 26 -80.5 32.5t-56.5 6.5
q-23 0 -44 -5t-41 -17q-17 -11 -27 -23.5t-16 -26.5h255l-36 -90h-240v-43h235l-36 -90h-182q11 -20 25 -31.5t27 -17.5q18 -8 40.5 -11.5t44.5 -3.5q25 0 47 4t45 15q22 11 42.5 27.5t35.5 34.5z" />
    <glyph glyph-name="trademark" unicode="&#x2122;" horiz-adv-x="828" 
d="M72 287v251l-75 -4v133h293v-133l-74 4v-251h-144zM302 287l60 380h150l46 -170l45 170h149l61 -380h-142l-17 171l-52 -171h-91l-50 167l-16 -167h-143z" />
    <glyph glyph-name="uniF407" 
d="M257 -268l-110 78l132 147l116 -82z" />
    <glyph glyph-name="uniF408" 
d="M104 726l-47 89l195 101l191 -103l-46 -89l-145 65z" />
    <glyph glyph-name="uniF40C" 
d="M387 822q0 -24 -10.5 -44t-27.5 -33q-12 -9 -26.5 -14.5t-28.5 -8.5t-25.5 -3.5t-18.5 -0.5t-18.5 0.5t-25.5 3.5t-28.5 8.5t-26.5 14.5q-17 13 -27.5 33t-10.5 44q0 25 11 44.5t27 31.5q12 9 26.5 14.5t28.5 8.5t25.5 3.5t18.5 0.5t18.5 -0.5t25.5 -3.5t28.5 -8.5
t26.5 -14.5q16 -12 27 -31.5t11 -44.5zM250 857q-7 0 -17 -1.5t-18 -6.5q-15 -9 -15 -27q0 -19 15 -28q8 -5 18 -6.5t17 -1.5q8 0 17.5 1.5t17.5 6.5q15 10 15 27q0 18 -15 28q-8 5 -17.5 6.5t-17.5 1.5z" />
    <glyph glyph-name="uniF40D" 
d="M217 755q-8 3 -16.5 6.5t-18.5 3.5q-15 0 -24 -9q-5 -5 -11.5 -14.5t-10.5 -17.5l-82 52q20 32 40.5 49t25.5 20q18 12 35 17t37 5q17 0 28.5 -3.5t25.5 -10.5l23 -12q11 -5 20 -9.5t20 -4.5q6 0 11.5 1.5t10.5 6.5q3 2 10 10t9 12l7 11l89 -44q-8 -14 -18.5 -28.5
t-22.5 -27.5q-20 -20 -41.5 -31t-50.5 -11q-17 0 -28.5 3.5t-24.5 8.5z" />
    <glyph glyph-name="uniF6C9" 
d="M250 925l117 -73l-146 -128l-87 55z" />
    <glyph glyph-name="uniF6CB" 
d="M46 811q0 19 7 35.5t19 28.5t28.5 19t35.5 7t35.5 -7t29 -19t19.5 -28.5t7 -35.5q0 -38 -26.5 -64.5t-64.5 -26.5t-64 26.5t-26 64.5zM273 811q0 19 7 35.5t19 28.5t28.5 19t35.5 7t35.5 -7t29 -19t19.5 -28.5t7 -35.5q0 -38 -26.5 -64.5t-64.5 -26.5t-64 26.5t-26 64.5z
" />
    <glyph glyph-name="uniF6CE" 
d="M251 925l115 -146l-86 -55l-146 128z" />
    <glyph glyph-name="florin.fitted" horiz-adv-x="558" 
d="M350 29q-2 -13 -6.5 -33t-12 -42.5t-19.5 -44.5t-30 -40q-21 -21 -46.5 -33t-53 -18.5t-54 -8.5t-48.5 -2q-20 0 -33.5 1t-30.5 5l27 169h12q13 0 32 1.5t33 12.5q15 11 20 26.5t8 30.5l47 268h-60l22 124h60l22 132q5 34 20 62.5t35 48.5q23 23 57.5 37.5t82.5 14.5
q22 0 51.5 -4t60.5 -18l-28 -167q-6 4 -16.5 8t-23.5 4q-22 0 -32 -12q-5 -5 -8.5 -14.5t-5.5 -17.5l-12 -74h69l-22 -124h-69z" />
    </font>
</defs>
</svg>
